<svg xmlns="http://www.w3.org/2000/svg" xmlns:xlink="http://www.w3.org/1999/xlink" width="98" height="87" viewBox="0 0 98 87">
  <defs>
    <clipPath id="clip-path">
      <rect id="Rectangle_89" data-name="Rectangle 89" width="98" height="87" transform="translate(-5909 1117)" fill="rgba(255,255,255,0)"/>
    </clipPath>
  </defs>
  <g id="Mask_Group_1" data-name="Mask Group 1" transform="translate(5909 -1117)" clip-path="url(#clip-path)">
    <g id="Group_169" data-name="Group 169" transform="translate(-5899.912 1117.001)">
      <g id="Group_168" data-name="Group 168">
        <path id="Path_3633" data-name="Path 3633" d="M98.567,5.888a1.275,1.275,0,0,0-1.947,1.646,14.04,14.04,0,1,1-2.874-2.582,1.274,1.274,0,1,0,1.428-2.111A16.569,16.569,0,0,0,75,4.076a24.653,24.653,0,0,0-16.067,3.83C43.484-1.729,25.887,6.812,23.072,24.833c-1.859,10.28,2.512,24.1,13.138,31.873-1.7,15.183,4.448,30.282,9.668,30.282a2.747,2.747,0,0,0,1.272-.309c2.657-1.386,2.535-6.479,2.593-9,.154-7.058,2.157-13.517,9.2-13.6,6.415.072,8.616,5.324,9.106,11.718.235,3.18-.331,9.3,2.682,10.876,5.4,2.814,12.789-13.489,10.942-29.973a31.788,31.788,0,0,0,7.214-7.4A1.274,1.274,0,1,0,86.8,47.845a29.11,29.11,0,0,1-7.212,7.217,1.274,1.274,0,0,0-.536,1.211c1.8,13.893-3.288,25.71-6.406,27.892-.255.178-.584.341-.736.262-.049-.026-1.212-.692-1.212-5.881,0-9.022-2.828-17-11.767-17-8.88.087-11.741,8.077-11.741,17,0,5.19-1.163,5.855-1.212,5.881-.153.079-.48-.083-.736-.262-3.118-2.178-8.207-13.994-6.406-27.892a1.274,1.274,0,0,0-.536-1.211C20.716,42.877,21.131,14.791,38.4,7.842c6.06-2.439,13.3-1.693,19.839,2.648a1.273,1.273,0,0,0,1.409,0A22.855,22.855,0,0,1,72.763,6.467,16.587,16.587,0,0,0,92.555,31.791a32.043,32.043,0,0,1-3.745,12.8,1.274,1.274,0,1,0,2.246,1.2,34.36,34.36,0,0,0,4.108-15.456,16.588,16.588,0,0,0,3.4-24.452Z" transform="translate(-22.655 0.002)" fill="#02c873"/>
        <path id="Path_3634" data-name="Path 3634" d="M365.019,58.6a4,4,0,0,0,3.993-3.993V51.9h2.713a3.993,3.993,0,1,0,0-7.987h-2.713V41.194a3.993,3.993,0,1,0-7.987,0v2.713h-2.714a3.993,3.993,0,0,0,0,7.987h2.714v2.713A4,4,0,0,0,365.019,58.6Zm-6.707-9.257h0a1.445,1.445,0,1,1,0-2.89H362.3a1.274,1.274,0,0,0,1.274-1.274V41.194a1.445,1.445,0,0,1,2.889,0v3.987a1.274,1.274,0,0,0,1.274,1.274h3.987a1.445,1.445,0,0,1,0,2.89h-3.986a1.274,1.274,0,0,0-1.274,1.274v3.987a1.445,1.445,0,0,1-2.889,0V50.623a1.274,1.274,0,0,0-1.276-1.277h-3.988Z" transform="translate(-301.784 -31.31)" fill="#02c873"/>
      </g>
    </g>
  </g>
</svg>
