<svg xmlns="http://www.w3.org/2000/svg" xmlns:xlink="http://www.w3.org/1999/xlink" width="98" height="87" viewBox="0 0 98 87">
  <defs>
    <clipPath id="clip-path">
      <rect id="Rectangle_89" data-name="Rectangle 89" width="98" height="87" transform="translate(-5811 1160)" fill="#fff"/>
    </clipPath>
  </defs>
  <g id="Mask_Group_1" data-name="Mask Group 1" transform="translate(5811 -1160)" clip-path="url(#clip-path)">
    <g id="Group_180" data-name="Group 180" transform="translate(-5800.319 1159.997)">
      <g id="Group_179" data-name="Group 179">
        <path id="Path_3656" data-name="Path 3656" d="M97.393,154.811a1.275,1.275,0,0,0-1.9,1.707l6.61,7.35a2.156,2.156,0,1,1-3.2,2.887L85.875,152.3c-.549-.61.78-.43-22.74-.271a2.157,2.157,0,0,1-1.607-.7L43.965,132.207a2.155,2.155,0,0,1,3.175-2.912c17.767,19.342,16.686,18.418,17.475,18.418l21.819-.151a2.168,2.168,0,0,1,1.607.712l4.7,5.213a1.275,1.275,0,1,0,1.893-1.707l-4.7-5.213a4.691,4.691,0,0,0-3.479-1.554v-5.021a3.337,3.337,0,0,0-2.41-3.2v-.551a3.5,3.5,0,0,0-3.5-3.5H65.279a3.5,3.5,0,0,0-3.5,3.5v.419H57.363l-8.346-9.085a4.7,4.7,0,0,0-5.661-.979l-1.162-1.264a4.7,4.7,0,0,0-.518-5.688L38.8,116.514a4.7,4.7,0,1,0-6.93,6.365l2.875,3.128A4.71,4.71,0,0,0,40.3,127.04l1.205,1.311a4.7,4.7,0,0,0,.58,5.588l17.566,19.115a4.72,4.72,0,0,0,3.361,1.519,11.535,11.535,0,0,0,9.082,6.493V169H65.759a3.5,3.5,0,0,0-3.493,3.5v.424a3.334,3.334,0,0,0-3.229,3.327V179.2a3.336,3.336,0,0,0,3.332,3.332H77.543a1.274,1.274,0,1,0,0-2.549H62.366a.784.784,0,0,1-.783-.783v-2.948a.784.784,0,0,1,.783-.783H84.431a.784.784,0,0,1,.783.783V179.2a.784.784,0,0,1-.783.783h-2.41a1.274,1.274,0,1,0,0,2.549h2.41a3.336,3.336,0,0,0,3.332-3.332v-2.945a3.334,3.334,0,0,0-3.229-3.327V172.5a3.5,3.5,0,0,0-3.5-3.5h-6.39v-7.939a11.5,11.5,0,0,0,9.148-6.628h.57l12.648,14.022a4.705,4.705,0,1,0,6.99-6.3ZM64.326,136.231a.949.949,0,0,1,.948-.948H80.555a.949.949,0,0,1,.948.948v.419H64.33Zm18.8,2.969a.784.784,0,0,1,.783.783v5.042l-18.739.13L59.7,139.2ZM38.211,124.972a2.133,2.133,0,0,1-1.588-.7l-2.879-3.128a2.155,2.155,0,0,1,3.175-2.912l2.874,3.128a2.157,2.157,0,0,1-1.582,3.609Zm42.826,46.584a.949.949,0,0,1,.948.948v.419H64.812V172.5a.949.949,0,0,1,.948-.948Zm-15.114-17,14.964-.1a8.908,8.908,0,0,1-14.964.1Z" transform="translate(-30.632 -95.529)" fill="#02c873"/>
        <path id="Path_3657" data-name="Path 3657" d="M262.608,1.754h-2.986a1.274,1.274,0,1,0,0,2.549h2.986a.683.683,0,1,1,0,1.367H241.783a5.143,5.143,0,0,0,0-1.367h13.477a1.274,1.274,0,0,0,0-2.549H240.637A4.991,4.991,0,0,0,232.019,3.7a6.876,6.876,0,0,0-8.87.4l-.587.543a3.336,3.336,0,0,0-.179,4.707l9.476,10.233a3.333,3.333,0,0,0,4.709.181l.584-.541a6.873,6.873,0,0,0,.693-9.351,4.994,4.994,0,0,0,2.79-1.656h21.971a3.233,3.233,0,1,0,0-6.465Zm-27.185,15.6c-.614.568-.74.75-1.116.75-.49,0,.118.5-10.052-10.486a.784.784,0,0,1,.041-1.1,4.821,4.821,0,0,1,3.526-1.7A4.287,4.287,0,0,1,231,6.21l4.656,5.027a4.329,4.329,0,0,1-.235,6.119Zm3.552-11.188a2.443,2.443,0,1,1-.035-2.42,2.44,2.44,0,0,1,.035,2.42Z" transform="translate(-189.202 0.001)" fill="#02c873"/>
        <path id="Path_3658" data-name="Path 3658" d="M249.961,136.567l4.45-9.288a1.275,1.275,0,0,0-2.3-1.1l-4.45,9.288a1.275,1.275,0,0,0,2.3,1.1Z" transform="translate(-210.835 -104.227)" fill="#02c873"/>
        <path id="Path_3659" data-name="Path 3659" d="M149.639,59.819l9.4-4.2A1.274,1.274,0,0,0,158,53.29l-9.4,4.2a1.274,1.274,0,1,0,1.04,2.327Z" transform="translate(-128.007 -44.181)" fill="#02c873"/>
      </g>
    </g>
  </g>
</svg>
