<svg xmlns="http://www.w3.org/2000/svg" xmlns:xlink="http://www.w3.org/1999/xlink" width="98" height="87" viewBox="0 0 98 87">
  <defs>
    <clipPath id="clip-path">
      <rect id="Rectangle_89" data-name="Rectangle 89" width="98" height="87" transform="translate(-5811 1160)" fill="#fff"/>
    </clipPath>
  </defs>
  <g id="Mask_Group_1" data-name="Mask Group 1" transform="translate(5811 -1160)" clip-path="url(#clip-path)">
    <g id="Group_171" data-name="Group 171" transform="translate(-5805.953 1160)">
      <g id="Group_170" data-name="Group 170">
        <path id="Path_3635" data-name="Path 3635" d="M188.755,77.706v.008a22.922,22.922,0,0,0-5.085-7.787,1.287,1.287,0,1,0-1.9,1.742,20.024,20.024,0,0,1,1.593,1.777c8.418,10.63,5.153,29.09-7.227,37.673a1.286,1.286,0,0,0-.543,1.223c1.84,14.205-4.261,25.746-6.366,25.748-.172,0-.505-.606-.707-1.4-.762-2.945.172-7.754-1.675-12.7a10.114,10.114,0,0,0-19.237.02c-1.8,5.135-.934,9.777-1.668,12.682-.356,1.355-.707,1.394-.707,1.394-2.054,0-8.216-11.437-6.366-25.748a1.286,1.286,0,0,0-.543-1.223,28.577,28.577,0,0,1-11.216-29.336,23.623,23.623,0,0,1,1.246-3.727c.26-.587.311-.9,1.032-.93a1.278,1.278,0,0,0,.247-.013,10.8,10.8,0,0,0,8.69-5.274A7.3,7.3,0,0,0,148.7,67.413a1.063,1.063,0,0,1,.111-.314,20.973,20.973,0,0,1,7.7,3.263,1.286,1.286,0,0,0,1.424,0c6.956-4.617,14.74-4.749,20.528-1.226,1.378.835,2.991-1.251,1.088-2.347-6.517-3.793-14.875-3.652-22.33.971a24.319,24.319,0,0,0-7.857-3.194,2.652,2.652,0,0,0-3.076,1.938,4.713,4.713,0,0,1-6.7,3.086,2.466,2.466,0,0,0-3.364.745q-.083.15-.172.294h0a1.281,1.281,0,0,0-.077.144,8.346,8.346,0,0,1-6.612,3.774,3.361,3.361,0,0,0-3.1,1.894,25.589,25.589,0,0,0-1.662,4.779c-2.728,11.153,1.826,24.351,11.62,31.558-1.526,13.694,4.019,27.879,9,27.888,4.212,0,3.492-7.815,3.8-10.907.383-4.085,1.739-8.589,5.679-9.738h0c4.8-1.373,8.446.977,9.857,5.254h0c1.676,5.244.426,8.851,1.608,12.553.785,2.468,2.252,2.837,3.059,2.837,4.951,0,10.544-14.09,9.008-27.888C189.352,104.613,193.508,88.807,188.755,77.706Z" transform="translate(-102.79 -53.665)" fill="#02c873"/>
        <path id="Path_3636" data-name="Path 3636" d="M25.665,8.231a1.287,1.287,0,0,0-1.287-1.287h-4.91V6.52a3.856,3.856,0,0,0-3.852-3.852H9.452A3.856,3.856,0,0,0,5.6,6.52v.423H3.444c-1.728,0-3.435,1.3-3.435,3.886,0,7.343-.076,7.059.213,7.5l5.6,8.47H4.4A3.575,3.575,0,0,0,.834,30.368v29.3A3.574,3.574,0,0,0,3.117,63V86.1a3.575,3.575,0,0,0,3.571,3.571H9.732A3.575,3.575,0,0,0,13.3,86.1V72.722a1.287,1.287,0,1,0-2.574,0V86.1a1,1,0,0,1-1,1H6.688a1,1,0,0,1-1-1V63.245h5.038V68.6a1.287,1.287,0,0,0,2.574,0V63a3.574,3.574,0,0,0,2.284-3.326V41.493a1.287,1.287,0,0,0-2.574,0V55.025h-9.6V35.019h9.605v2.129a1.287,1.287,0,1,0,2.574,0v-6.78A3.575,3.575,0,0,0,12.016,26.8H8.9l-6.32-9.567v-6.4c0-1.1.448-1.284.894-1.314H5.6v.423A3.856,3.856,0,0,0,9.45,13.792h6.164A3.856,3.856,0,0,0,19.466,9.94V9.518h4.912A1.287,1.287,0,0,0,25.665,8.231ZM13.013,57.6v2.075a1,1,0,0,1-1,1H4.4a1,1,0,0,1-1-1V57.6ZM8.556,29.371h3.461a1,1,0,0,1,1,1v2.075H3.408V30.368a1,1,0,0,1,1-1ZM16.893,9.94a1.279,1.279,0,0,1-1.277,1.275H9.452A1.279,1.279,0,0,1,8.172,9.94V6.521A1.279,1.279,0,0,1,9.45,5.242h6.164a1.279,1.279,0,0,1,1.28,1.279V9.94Z" transform="translate(0 -2.669)" fill="#02c873"/>
      </g>
    </g>
  </g>
</svg>
