<svg xmlns="http://www.w3.org/2000/svg" xmlns:xlink="http://www.w3.org/1999/xlink" width="98" height="87" viewBox="0 0 98 87">
  <defs>
    <clipPath id="clip-path">
      <rect id="Rectangle_89" data-name="Rectangle 89" width="98" height="87" transform="translate(-5811 1160)" fill="#fff"/>
    </clipPath>
  </defs>
  <g id="Mask_Group_1" data-name="Mask Group 1" transform="translate(5811 -1160)" clip-path="url(#clip-path)">
    <g id="Group_10" data-name="Group 10" transform="translate(873.324 -125.517)">
      <g id="Group_173" data-name="Group 173" transform="translate(-6682.858 1285.517)">
        <g id="Group_172" data-name="Group 172">
          <path id="Path_3637" data-name="Path 3637" d="M85.45,43.751H82.67v-4.02a4.339,4.339,0,0,0,2.808-4.054v-4.1a6.852,6.852,0,0,0-6.844-6.844H69.094a6.853,6.853,0,0,0-6.844,6.836v3.107a21.625,21.625,0,0,0-2.685-1.838,1.392,1.392,0,0,0-1.4,2.407,19.522,19.522,0,0,1,6.888,6.82v1.686H62.151a9.625,9.625,0,0,0-9.614,9.614c0,52.012-.039,49.028.073,49.92-1.783,4.224-3.532,5.658-4.078,5.659-.2,0-.64-.8-.881-2.141a31.917,31.917,0,0,1-.28-4.849c-.6-19.428-17.836-18.872-21.93-8.04-1.576,4.3-1.347,9.434-1.423,10.851-.169,3.181-.911,4.179-1.1,4.179-2.178,0-8.752-12.191-6.772-27.465a1.392,1.392,0,0,0-.588-1.323A30.655,30.655,0,0,1,3.3,50.245C6.254,34.554,21.647,27.85,34.955,36.687a1.391,1.391,0,0,0,1.539,0A21.117,21.117,0,0,1,54,33.477a1.392,1.392,0,1,0,.767-2.677,23.661,23.661,0,0,0-19.046,3.07C20.754,24.593,3.254,32.565.406,50.609-1.429,60.76,2.892,74.315,13.28,81.956c-1.621,14.584,4.282,29.776,9.633,29.776,2.224,0,3.227-2.243,3.621-4.433.746-4.167-1.181-17.913,9.186-18.029,6.908.077,8.723,6.519,8.88,13.4.034,1.857-.2,9.062,3.928,9.062,2.2,0,4.069-2.417,5.355-4.712a9.617,9.617,0,0,0,8.266,4.712h23.3a9.625,9.625,0,0,0,9.614-9.614V53.368A9.625,9.625,0,0,0,85.45,43.751ZM65.038,35.673v-4.1h0A4.065,4.065,0,0,1,69.1,27.515h9.541A4.064,4.064,0,0,1,82.7,31.575v4.1a1.549,1.549,0,0,1-1.548,1.547H66.582a1.549,1.549,0,0,1-1.547-1.546ZM79.891,40v3.748H67.843V40.008ZM92.277,66.024H86.115a1.392,1.392,0,0,0,0,2.783h6.162V95.989H66.689a1.392,1.392,0,0,0,0,2.783H92.276v3.344a6.836,6.836,0,0,1-6.826,6.836h-23.3a6.836,6.836,0,0,1-6.83-6.836V98.774H62.05a1.392,1.392,0,0,0,0-2.783H55.321V68.808H81.412a1.392,1.392,0,1,0,0-2.783H55.321v-6.38H92.276v6.38Zm0-9.161H55.321V53.368a6.836,6.836,0,0,1,6.836-6.83H85.45a6.836,6.836,0,0,1,6.836,6.83v3.494Z" transform="translate(0.005 -24.732)" fill="#02c873"/>
          <path id="Path_3638" data-name="Path 3638" d="M373.552,331.164a1.392,1.392,0,0,0,1.392,1.392h23.067a1.392,1.392,0,1,0,0-2.783H374.944a1.391,1.391,0,0,0-1.392,1.391Z" transform="translate(-312.674 -280.063)" fill="#02c873"/>
          <path id="Path_3639" data-name="Path 3639" d="M398.01,369.122H374.943a1.392,1.392,0,1,0,0,2.783H398.01a1.392,1.392,0,0,0,0-2.783Z" transform="translate(-312.672 -313.002)" fill="#02c873"/>
          <path id="Path_3640" data-name="Path 3640" d="M398.01,408.472H374.943a1.392,1.392,0,1,0,0,2.783H398.01a1.392,1.392,0,0,0,0-2.783Z" transform="translate(-312.672 -345.939)" fill="#02c873"/>
        </g>
      </g>
    </g>
  </g>
</svg>
