<svg xmlns="http://www.w3.org/2000/svg" xmlns:xlink="http://www.w3.org/1999/xlink" width="98" height="87" viewBox="0 0 98 87">
  <defs>
    <clipPath id="clip-path">
      <rect id="Rectangle_89" data-name="Rectangle 89" width="98" height="87" transform="translate(-5811 1160)" fill="#fff"/>
    </clipPath>
  </defs>
  <g id="Mask_Group_1" data-name="Mask Group 1" transform="translate(5811 -1160)" clip-path="url(#clip-path)">
    <g id="Group_175" data-name="Group 175" transform="translate(-5796.061 1159.999)">
      <g id="Group_174" data-name="Group 174">
        <path id="Path_3641" data-name="Path 3641" d="M208.311,172.729c-.292,3.876,1.206,9.011,3.677,9.011a1.888,1.888,0,0,0,1.8-1.577,11.886,11.886,0,0,0,.23-2.517c.087-.858.291-2.016,1.119-2.262h0c1.359-.4,1.954.577,2.128,1.994a19.8,19.8,0,0,0,.23,2.682,1.9,1.9,0,0,0,3.494.81c1.22-1.395,2.281-4.641,2.017-8.144,6.544-5.364,4-16.218-3.67-16.176a7.831,7.831,0,0,0-3.68.98,7.281,7.281,0,0,0-8.689,1.041h0C203.254,162.2,203.948,169.153,208.311,172.729Zm-1.087-9.327a6.506,6.506,0,0,1,.228-.881h0a4.713,4.713,0,0,1,4.437-3.42c2.736.02,3.206,1.824,4.475.981a5.578,5.578,0,0,1,3.095-.979c5.4.05,6.552,8.481,1.484,12a1.274,1.274,0,0,0-.536,1.211,11.694,11.694,0,0,1-.547,5.389c-.419-6.6-7.123-6.236-8.2-1.425a9.18,9.18,0,0,0-.2,1.425,11.693,11.693,0,0,1-.547-5.39,1.274,1.274,0,0,0-.536-1.211,7.887,7.887,0,0,1-3.156-7.695Z" transform="translate(-181.6 -131.756)" fill="#02c873"/>
        <path id="Path_3642" data-name="Path 3642" d="M126.442,24.85a1.274,1.274,0,0,0,1.274-1.274V16.742a5.873,5.873,0,0,0-5.867-5.867H107.217A3.319,3.319,0,0,0,104,8.324h-2.421a7.931,7.931,0,1,0-15.843,0H83.319A3.319,3.319,0,0,0,80.1,10.875H65.462A5.873,5.873,0,0,0,59.6,16.742V81.133A5.873,5.873,0,0,0,65.462,87h56.387a5.873,5.873,0,0,0,5.867-5.867V27.653a1.274,1.274,0,0,0-2.549,0V81.133a3.326,3.326,0,0,1-3.318,3.318H65.462a3.326,3.326,0,0,1-3.318-3.318V16.742a3.326,3.326,0,0,1,3.318-3.318H80v2.554H65.975A1.274,1.274,0,0,0,64.7,17.252V80.623A1.274,1.274,0,0,0,65.975,81.9h40.8a1.274,1.274,0,1,0,0-2.549H67.247V18.527H80.259a3.326,3.326,0,0,0,3.061,2.038h20.673a3.326,3.326,0,0,0,3.06-2.038h13.012V79.353h-9.1a1.274,1.274,0,0,0,0,2.549h10.373a1.274,1.274,0,0,0,1.274-1.274V17.252a1.274,1.274,0,0,0-1.274-1.274h-14.03V13.424h14.54a3.326,3.326,0,0,1,3.318,3.318v6.832a1.274,1.274,0,0,0,1.274,1.276Zm-21.682-7.6a.767.767,0,0,1-.767.767H83.319a.767.767,0,0,1-.767-.767V11.64a.768.768,0,0,1,.767-.767h3.69A1.274,1.274,0,0,0,88.289,9.6V7.921a5.372,5.372,0,1,1,10.744,0V9.6a1.274,1.274,0,0,0,1.271,1.274h3.69a.768.768,0,0,1,.767.767C104.76,13.862,104.76,15.07,104.76,17.252Z" transform="translate(-59.595)" fill="#02c873"/>
        <path id="Path_3643" data-name="Path 3643" d="M256.785,29.06a3.359,3.359,0,1,0,3.361,3.36A3.359,3.359,0,0,0,256.785,29.06Zm0,4.168a.809.809,0,1,1,.809-.809.809.809,0,0,1-.809.809Z" transform="translate(-222.724 -24.457)" fill="#02c873"/>
        <path id="Path_3644" data-name="Path 3644" d="M172.286,342.42a1.274,1.274,0,0,0,1.274,1.274h36.062a1.274,1.274,0,1,0,0-2.549H173.566a1.275,1.275,0,0,0-1.28,1.274Z" transform="translate(-154.441 -287.109)" fill="#02c873"/>
        <path id="Path_3645" data-name="Path 3645" d="M173.566,382.892h36.062a1.274,1.274,0,1,0,0-2.549H173.566a1.274,1.274,0,0,0,0,2.549Z" transform="translate(-154.441 -320.098)" fill="#02c873"/>
        <path id="Path_3646" data-name="Path 3646" d="M173.566,422.09h36.062a1.274,1.274,0,0,0,0-2.549H173.566a1.274,1.274,0,0,0,0,2.549Z" transform="translate(-154.441 -353.087)" fill="#02c873"/>
        <path id="Path_3647" data-name="Path 3647" d="M173.566,461.29h36.062a1.274,1.274,0,0,0,0-2.549H173.566a1.274,1.274,0,0,0,0,2.549Z" transform="translate(-154.441 -386.075)" fill="#02c873"/>
        <path id="Path_3648" data-name="Path 3648" d="M137.682,341.145h-1.7a1.274,1.274,0,1,0,0,2.549h1.7a1.274,1.274,0,1,0,0-2.549Z" transform="translate(-122.809 -287.109)" fill="#02c873"/>
        <path id="Path_3649" data-name="Path 3649" d="M137.682,380.343h-1.7a1.274,1.274,0,0,0,0,2.549h1.7a1.274,1.274,0,1,0,0-2.549Z" transform="translate(-122.809 -320.098)" fill="#02c873"/>
        <path id="Path_3650" data-name="Path 3650" d="M137.682,419.541h-1.7a1.274,1.274,0,0,0,0,2.549h1.7a1.274,1.274,0,0,0,0-2.549Z" transform="translate(-122.809 -353.087)" fill="#02c873"/>
        <path id="Path_3651" data-name="Path 3651" d="M137.682,458.738h-1.7a1.274,1.274,0,1,0,0,2.549h1.7a1.274,1.274,0,1,0,0-2.549Z" transform="translate(-122.809 -386.075)" fill="#02c873"/>
      </g>
    </g>
  </g>
</svg>
