<svg xmlns="http://www.w3.org/2000/svg" xmlns:xlink="http://www.w3.org/1999/xlink" width="98" height="87" viewBox="0 0 98 87">
  <defs>
    <clipPath id="clip-path">
      <rect id="Rectangle_89" data-name="Rectangle 89" width="98" height="87" transform="translate(-5811 1160)" fill="#fff"/>
    </clipPath>
  </defs>
  <g id="Mask_Group_1" data-name="Mask Group 1" transform="translate(5811 -1160)" clip-path="url(#clip-path)">
    <g id="Group_178" data-name="Group 178" transform="translate(-5796.302 1160)">
      <g id="Group_177" data-name="Group 177">
        <path id="Path_3653" data-name="Path 3653" d="M156.281,78.089a1.275,1.275,0,0,0-2.407.841c3.563,10.187-.708,22.635-9.657,28.839a1.274,1.274,0,0,0-.537,1.211c1.694,13.075-3.919,23.422-5.736,23.522-1.516-1.156-.154-7.376-2.106-12.861-2.991-8.6-14.993-8.836-17.981.446a25.289,25.289,0,0,0-1.045,7.639c0,3.97-.827,4.713-.908,4.776-1.8-.1-7.432-10.42-5.736-23.522a1.274,1.274,0,0,0-.537-1.211c-9.141-6.337-13.2-18.952-9.611-28.971a10.68,10.68,0,0,0,12.434,6.117,6.217,6.217,0,1,0,7.785-8.011c.043-.194.111-.565.129-.683a9.163,9.163,0,0,0,9.433-6.967c8.662-4.405,17.824-1.624,22.4,6.072a1.275,1.275,0,1,0,2.191-1.3c-4.988-8.389-14.832-11.762-24.35-7.689a9.125,9.125,0,0,0-1.541-4.42,1.275,1.275,0,1,0-2.113,1.427,6.635,6.635,0,1,1-2.871-2.385,1.275,1.275,0,0,0,1.013-2.339,9.2,9.2,0,0,0-12.36,5.535c-.1-.023-.2-.041-.3-.061A6.4,6.4,0,1,0,100.6,69.214a10.6,10.6,0,0,0-1.445,5.347c-6.249,11.225-2.293,26.956,8.4,34.851-1.519,13.915,4.727,27.856,9.526,25.353,1.537-.8,2.285-3.108,2.285-7.041,0-6.062,1.524-11.915,7.561-11.984,5.523.064,7.253,4.877,7.521,10.394.108,2.12-.261,7.283,2.324,8.631,4.789,2.5,11.049-11.405,9.526-25.353C155.725,102.459,160.151,89.152,156.281,78.089Zm-34.294,4.728A3.671,3.671,0,0,1,114.842,84,10.729,10.729,0,0,0,119.4,79.31a3.676,3.676,0,0,1,2.585,3.506ZM111.711,66.663a9.212,9.212,0,0,0,6.155,9.063,7.991,7.991,0,0,1-1.222,3.236,8.122,8.122,0,1,1-4.932-12.3Zm-6.153-5.349a3.863,3.863,0,0,1,3.645,2.6,10.692,10.692,0,0,0-6.987,3.177,3.859,3.859,0,0,1,3.342-5.776Z" transform="translate(-89.077 -48.058)" fill="#02c873"/>
        <path id="Path_3654" data-name="Path 3654" d="M58.409,117.659a4.12,4.12,0,1,0,4.12,4.12A4.12,4.12,0,0,0,58.409,117.659Zm0,5.693a1.571,1.571,0,1,1,1.571-1.571,1.571,1.571,0,0,1-1.571,1.571Z" transform="translate(-54.289 -97.721)" fill="#02c873"/>
        <path id="Path_3655" data-name="Path 3655" d="M165.592,9.965a4.983,4.983,0,1,0-4.983-4.983,4.983,4.983,0,0,0,4.983,4.983Zm0-7.42a2.433,2.433,0,1,1-2.434,2.433,2.433,2.433,0,0,1,2.434-2.433Z" transform="translate(-142.592)" fill="#02c873"/>
      </g>
    </g>
  </g>
</svg>
