<svg xmlns="http://www.w3.org/2000/svg" xmlns:xlink="http://www.w3.org/1999/xlink" width="98" height="87" viewBox="0 0 98 87">
  <defs>
    <clipPath id="clip-path">
      <rect id="Rectangle_89" data-name="Rectangle 89" width="98" height="87" transform="translate(-5811 1160)" fill="#fff"/>
    </clipPath>
  </defs>
  <g id="Mask_Group_1" data-name="Mask Group 1" transform="translate(5811 -1160)" clip-path="url(#clip-path)">
    <g id="Group_182" data-name="Group 182" transform="translate(-5797.491 1160)">
      <g id="Group_181" data-name="Group 181">
        <path id="Path_3660" data-name="Path 3660" d="M112.6,79.334a10.725,10.725,0,0,1-10.712-10.712,1.274,1.274,0,1,0-2.549,0,10.656,10.656,0,0,1-2.172,6.458c-5.713-2.9-12.9-2.576-19.333,1.387-12.2-7.517-26.985-1.844-30.014,13.6a28.54,28.54,0,0,0,10.825,27.472c-1.484,13.578,4.528,27.338,9.321,25.168h0c3.562-1.6,1.486-8.661,3.433-14.191,2.378-6.523,12.621-7.472,13.778,4.3.276,2.979-.1,5.595.856,7.939a3.415,3.415,0,0,0,1.736,1.973c4.866,2.043,10.715-11.854,9.257-25.194a27.638,27.638,0,0,0,8.329-10.156,1.274,1.274,0,0,0-2.292-1.114,26.839,26.839,0,0,1-2.354,3.939c-4.552,5.969-6.51,5.288-6.3,6.9,1.616,12.469-3.557,22.977-5.661,23.271a2.173,2.173,0,0,1-.466-.88,11.709,11.709,0,0,1-.418-3.188c-.012-.476.091-5.367-1.2-8.67a9.3,9.3,0,0,0-17.793.382c-1.622,4.751-.593,9.917-1.714,12.04a1.066,1.066,0,0,1-.236.317c-2.077-.291-7.286-10.738-5.662-23.271a1.274,1.274,0,0,0-.537-1.211,26.06,26.06,0,0,1-10.792-21.3c.247-15.851,14.621-23.895,27.2-15.55a1.275,1.275,0,0,0,1.409,0c5.583-3.709,11.736-4.21,16.738-2.032a10.684,10.684,0,0,1-6.65,2.324,1.274,1.274,0,0,0,0,2.549A10.725,10.725,0,0,1,99.343,92.595a1.274,1.274,0,0,0,2.549,0,10.671,10.671,0,0,1,2.152-6.432,23.984,23.984,0,0,1,.535,16.273,1.274,1.274,0,0,0,2.435.754,26.434,26.434,0,0,0-.454-17.606l.008.019c-.129-.35-.447-1.05-.612-1.4a10.656,10.656,0,0,1,6.647-2.321,1.274,1.274,0,0,0,0-2.549Zm-11.992,7.579A13.359,13.359,0,0,0,94.3,80.608a13.353,13.353,0,0,0,6.315-6.314,13.348,13.348,0,0,0,6.315,6.315,13.438,13.438,0,0,0-6.314,6.305Z" transform="translate(-47.375 -55.931)" fill="#02c873"/>
        <path id="Path_3661" data-name="Path 3661" d="M390.887,14.385a4.974,4.974,0,0,1-4.968-4.963,1.274,1.274,0,1,0-2.549,0A4.974,4.974,0,0,1,378.4,14.39a1.274,1.274,0,1,0,0,2.549,4.974,4.974,0,0,1,4.968,4.968,1.274,1.274,0,0,0,2.549,0,4.974,4.974,0,0,1,4.968-4.968,1.274,1.274,0,1,0,0-2.549Zm-6.242,3.334a7.585,7.585,0,0,0-2.06-2.06,7.585,7.585,0,0,0,2.06-2.06,7.583,7.583,0,0,0,2.06,2.06,7.582,7.582,0,0,0-2.06,2.06Z" transform="translate(-321.224 -6.763)" fill="#02c873"/>
        <path id="Path_3662" data-name="Path 3662" d="M259.835,7.386a3.565,3.565,0,0,1,3.561,3.561,1.274,1.274,0,0,0,2.549,0,3.565,3.565,0,0,1,3.561-3.561,1.274,1.274,0,1,0,0-2.549,3.565,3.565,0,0,1-3.561-3.561,1.274,1.274,0,0,0-2.549,0,3.565,3.565,0,0,1-3.561,3.561,1.274,1.274,0,1,0,0,2.549Zm4.835-2.374a6.172,6.172,0,0,0,1.1,1.1,6.169,6.169,0,0,0-1.1,1.1,6.151,6.151,0,0,0-1.1-1.1,6.165,6.165,0,0,0,1.1-1.1Z" transform="translate(-222.759 -0.002)" fill="#02c873"/>
      </g>
    </g>
  </g>
</svg>
