<svg xmlns="http://www.w3.org/2000/svg" xmlns:xlink="http://www.w3.org/1999/xlink" width="98" height="87" viewBox="0 0 98 87">
  <defs>
    <clipPath id="clip-path">
      <rect id="Rectangle_89" data-name="Rectangle 89" width="98" height="87" transform="translate(-5811 1160)" fill="#fff"/>
    </clipPath>
  </defs>
  <g id="Mask_Group_1" data-name="Mask Group 1" transform="translate(5811 -1160)" clip-path="url(#clip-path)">
    <g id="Group_176" data-name="Group 176" transform="translate(-5787.9 1160)">
      <path id="Path_3652" data-name="Path 3652" d="M145.743,39.594c-.032-.633-.078-1.263-.145-1.885,13.346-9.97,12.249-31.164-1.126-36.548a16.956,16.956,0,0,0-15.255,1.618C113.9-6.538,97.7,9.05,105.143,27.548a23.568,23.568,0,0,0,7.7,10.16c-.066.623-.113,1.253-.144,1.885a3.373,3.373,0,0,0-2.293,3.19V50.9a3.373,3.373,0,0,0,3.369,3.369h1.169v1.4a3.381,3.381,0,0,0,3.579,3.369v1.51a1.275,1.275,0,0,0-.329,2.44l.329.138v3.621a1.275,1.275,0,0,0-.329,2.44l.329.138v3.622a1.275,1.275,0,0,0-.329,2.44l.329.138c0,1.572-.106,2.023.413,2.5,10.182,9.333,9.6,8.973,10.287,8.973.661,0,.456.036,5.6-4.681a2.285,2.285,0,0,0,.951.29,1.276,1.276,0,0,0,1-2.073l2.709-2.484a1.274,1.274,0,1,0,.875-2.393l-.431-.179V71.912a1.274,1.274,0,0,0,.431-2.447l-.431-.179V65.712a1.274,1.274,0,0,0,.431-2.447l-.431-.179V59.042a3.383,3.383,0,0,0,3.579-3.369v-1.4h1.168a3.373,3.373,0,0,0,3.369-3.369V42.783a3.373,3.373,0,0,0-2.294-3.189ZM129.215,84l-8.025-7.356,11.034,4.6ZM134.3,79.34l-13.232-5.514V70.39l15.81,6.588Zm3.072-11.118-1.994-.832a1.275,1.275,0,1,0-.981,2.353l2.976,1.24v3.438l-16.306-6.794V64.191l9.593,4a1.274,1.274,0,1,0,.98-2.353l-10.573-4.407V59.042h2.521l13.782,5.743Zm-7.16-9.181h7.156v2.982Zm10.735-3.369a.822.822,0,0,1-.821.821H118.307a.822.822,0,0,1-.821-.821v-1.4H140.95Zm4.538-4.773a.822.822,0,0,1-.821.821h-30.9a.822.822,0,0,1-.821-.821V42.783a.822.822,0,0,1,.821-.821H135.6a1.274,1.274,0,0,0,0-2.548H115.256c.043-.72.11-1.436.2-2.138a1.274,1.274,0,0,0-.537-1.211,21.688,21.688,0,0,1-8.774-20.6c1.768-11.38,12.77-16.486,22.372-10.117a1.275,1.275,0,0,0,1.409,0c4.052-2.692,9.03-3.665,13.6-1.826,11.911,4.795,12.028,24.2,0,32.54a1.274,1.274,0,0,0-.537,1.211c.091.7.159,1.417.2,2.138h-3.34a1.274,1.274,0,0,0,0,2.548h4.822a.822.822,0,0,1,.821.821V50.9Z" transform="translate(-103.274)" fill="#02c873"/>
    </g>
  </g>
</svg>
