<svg id="Layer_1" data-name="Layer 1" xmlns="http://www.w3.org/2000/svg" viewBox="0 0 556.79 174.74"><defs><style>.cls-1{fill:#fbf7bf;}.cls-2{fill:#703b18;}.cls-3{fill:#333;}.cls-4{fill:#bb4746;}.cls-5{fill:#ee7878;}.cls-6{fill:#fdc07c;}.cls-7{fill:#fff;}.cls-8{fill:#721b2a;}.cls-9{fill:#e08f44;}.cls-10{fill:#0c687d;}.cls-11{fill:#3b9bb7;}.cls-12{fill:#002b42;}.cls-13{fill:#be7129;}.cls-14{fill:#7d2e1a;}.cls-15{fill:#666;}.cls-16{fill:#fdc281;}.cls-17{fill:#414042;}</style></defs><polygon class="cls-1" points="116.33 136.99 88.32 97.56 109.59 141 85.86 98.85 102.48 144.27 83.29 99.88 95.06 146.79 80.61 100.63 87.42 148.52 77.88 101.1 79.65 149.44 75.11 101.28 71.81 149.54 72.34 101.17 64.02 148.82 69.59 100.78 56.33 147.29 66.9 100.09 48.85 144.96 64.3 99.13 41.66 141.87 61.8 97.9 34.83 138.04 59.46 96.42 28.43 133.52 57.28 94.7 22.54 128.35 55.29 92.77 17.23 122.6 53.52 90.63 12.54 116.33 51.98 88.32 8.54 109.59 50.68 85.86 5.26 102.48 49.66 83.29 2.75 95.06 48.9 80.61 1.02 87.42 48.43 77.88 0.1 79.65 48.25 75.11 0 71.81 48.36 72.34 0.72 64.02 48.76 69.59 2.25 56.33 49.44 66.9 4.57 48.85 50.41 64.3 7.67 41.66 51.63 61.81 11.49 34.83 53.12 59.46 16.02 28.43 54.83 57.28 21.18 22.54 56.77 55.29 26.93 17.23 58.91 53.52 33.21 12.54 61.22 51.98 39.94 8.54 63.67 50.68 47.06 5.26 66.25 49.66 54.47 2.75 68.92 48.9 62.11 1.02 71.66 48.43 69.89 0.1 74.43 48.25 77.72 0 77.2 48.36 85.52 0.72 79.95 48.76 93.2 2.25 82.64 49.44 100.68 4.57 85.24 50.41 107.88 7.67 87.73 51.63 114.71 11.49 90.08 53.12 121.11 16.02 92.26 54.83 126.99 21.18 94.25 56.77 132.31 26.93 96.02 58.91 136.99 33.21 97.56 61.22 141 39.94 98.85 63.67 144.27 47.06 99.88 66.25 146.79 54.47 100.64 68.92 148.52 62.11 101.1 71.66 149.44 69.89 101.28 74.43 149.54 77.72 101.17 77.2 148.82 85.52 100.78 79.95 147.29 93.2 100.09 82.64 144.97 100.68 99.13 85.24 141.87 107.88 97.9 87.73 138.04 114.71 96.42 90.08 133.52 121.11 94.7 92.26 128.35 126.99 92.77 94.25 122.6 132.31 90.63 96.02 116.33 136.99"/><path class="cls-2" d="M57.42,65.08s.06,0,0,.08a8.26,8.26,0,0,0-2.86,3.23,10.59,10.59,0,0,0-.78,2,15.86,15.86,0,0,1-.5,2.06.14.14,0,0,1-.23,0,4,4,0,0,1-.4-2l-.05,0A7.14,7.14,0,0,1,52.4,64a14.8,14.8,0,0,1,4.29-5.08s.07,0,.06,0c-.47.87-.88,1.75-1.36,2.61s-.91,1.68-1.29,2.55a14.15,14.15,0,0,0-.83,2.71,9.22,9.22,0,0,0-.2,1.44,7,7,0,0,1,.34-.82A4,4,0,0,1,57.42,65.08Z" transform="translate(-8.37 -4.66)"/><path class="cls-2" d="M88.86,25.32c-1.79,1.36-4.34,1.54-6.51,1.54-2.54,0-5.07-.33-7.6-.51-1.09-.07-2.19-.17-3.29-.19a5.55,5.55,0,0,0-2.54.3s-.06,0,0,0a8.39,8.39,0,0,1,1-.83c-3-.37-5.83-2.3-8.58-3.33a9.08,9.08,0,0,0-4.79-.74c-1.92.35-3.16,1.87-4.06,3.5-1.16,2.09-1.9,4.38-2.87,6.55a18.48,18.48,0,0,1-4.18,5.77c-3.12,3-6.68,6-7.26,10.62a20.19,20.19,0,0,0-.13,2.69,8.73,8.73,0,0,1,4-5.33s.05,0,0,0a35.33,35.33,0,0,0-1.86,3.75,32.56,32.56,0,0,0-1,4.14,35.92,35.92,0,0,1-3.47,8.81.22.22,0,0,1-.41-.11c.05-2.7,1-5.32,1.78-7.91a13.43,13.43,0,0,1-.93-6.33,12,12,0,0,1,2.28-6.1,33.32,33.32,0,0,1,4.46-4.89,20.72,20.72,0,0,0,4.42-5.53c1.92-3.75,3-8.8,7.06-10.91,3.23-1.68,6.92-.11,9.92,1.32C66.66,22.71,69,23.93,71.35,25a14,14,0,0,1,2.33-.31c2.38-.14,4.81.19,7.19.25,2,.05,4.4.11,6.31-.76s2.71-2.67,3-4.71c0-.25.41-.22.47,0A5.33,5.33,0,0,1,88.86,25.32Z" transform="translate(-8.37 -4.66)"/><path class="cls-2" d="M44.35,73.84c.28.22.13.73-.27.62-3.12-.89-5.09-4-5.94-7a13.24,13.24,0,0,1-.49-5,6.57,6.57,0,0,1,1.68-3.91.11.11,0,0,1,.18.1,17.44,17.44,0,0,0-.42,3.81,15,15,0,0,0,.72,4.35A14,14,0,0,0,44.35,73.84Z" transform="translate(-8.37 -4.66)"/><path class="cls-2" d="M42.89,63.7a0,0,0,0,1,.09,0c.21.82.44,1.63.65,2.45s.25,1.91.45,2.84a18.21,18.21,0,0,0,.67,2.51,14.6,14.6,0,0,0,1.48,2.64.34.34,0,0,1-.46.46,7.55,7.55,0,0,1-3.22-4.91,12.84,12.84,0,0,1-.28-3.09A14.27,14.27,0,0,1,42.89,63.7Z" transform="translate(-8.37 -4.66)"/><path class="cls-2" d="M35.83,108.93c-1.59,1.74-3.51,3.54-5.86,4.16a.27.27,0,0,0,.07.52,10.22,10.22,0,0,0,5.79-2.13,21,21,0,0,0,4.88-5.58c.34-.54.66-1.09,1-1.65a14.55,14.55,0,0,0,1.64-1.75c.9-1,1.81-1.88,2.62-2.91a11.85,11.85,0,0,0,1.89-3.2,5.7,5.7,0,0,0,.41-3.54h0a16.2,16.2,0,0,0-.81,1.8,12.66,12.66,0,0,1-.81,1.49A24.15,24.15,0,0,1,44.34,99l-.21.22a70.43,70.43,0,0,0,3.8-12.35c.22-1,.42-2,.6-3.07,1.88,0,3.5-1.61,4.53-3a6.32,6.32,0,0,0,1.3-5.28c0-.09-.18-.12-.22,0A23.38,23.38,0,0,1,51.72,80a34.73,34.73,0,0,1-3.09,3.21c.09-.55.17-1.11.25-1.67,5.22-4.47-.51-11.63-1.38-17.28a18.27,18.27,0,0,1,3.29-5.68,8.15,8.15,0,0,0-.51,1.61A6.78,6.78,0,0,0,50.44,64c.12.27.49.16.57-.07a33.7,33.7,0,0,1,1-3.76,10.88,10.88,0,0,1,1.85-2.75,24,24,0,0,1,5.89-4.41c4.15-2.46,9.24-5,10.72-10a.17.17,0,0,0-.31-.13c-2.72,4.5-8.17,6.49-12.51,9l-.64.38a27,27,0,0,0,2.74-3.29,15.38,15.38,0,0,0,2.45-5.21A40.15,40.15,0,0,0,63,38a48.5,48.5,0,0,1,.76-5.74,14.63,14.63,0,0,1,.85-2.73A9.68,9.68,0,0,1,66,27c.07-.07,0-.2-.1-.14A9.24,9.24,0,0,0,64,28.2c-2.67,2.74-2.74,7.15-3.1,10.72a24.45,24.45,0,0,1-1.08,5.69,16,16,0,0,1-3,4.83c-2.4,2.8-5.61,5.37-8,8.35A17.21,17.21,0,0,1,50.48,55a7.73,7.73,0,0,0,1.6-5.46c0-.13-.23-.2-.26,0-.64,3.91-5.62,6.32-4.44,10.49a11.74,11.74,0,0,0-1.46,4.11c0-.06,0-.11-.05-.16a24.67,24.67,0,0,1-.92-3.6,10.39,10.39,0,0,1-.11-1.77A6.19,6.19,0,0,1,44.9,57s0,0,0,0A11.05,11.05,0,0,0,44,58.51a8.14,8.14,0,0,0-.32,1.76A11.56,11.56,0,0,0,44,63.88a18.86,18.86,0,0,0,3.29,6.84c.12.16.46.14.44-.12a18.18,18.18,0,0,0-1-3.86c0-.13.07-.26.1-.39S47,66,47,65.8a22.29,22.29,0,0,0,1.1,5c-.48,3.72-.7,7.47-1.37,11.17a72.74,72.74,0,0,1-6.05,19.5A32.34,32.34,0,0,1,35.83,108.93Zm13.3-29.55c.08-.71.14-1.42.19-2.13,0-.45,0-.91.07-1.36A8.57,8.57,0,0,1,49.13,79.38Z" transform="translate(-8.37 -4.66)"/><path class="cls-2" d="M45.48,112.22a.13.13,0,0,1,.22.13A11.63,11.63,0,0,1,44.29,115a10.1,10.1,0,0,1-2.62,2.21c-1.74,1.08-4,1.84-6,1.09a.23.23,0,0,1,0-.44,45.45,45.45,0,0,0,5.2-2.08,16.15,16.15,0,0,0,2.29-1.55A12.71,12.71,0,0,0,45.48,112.22Z" transform="translate(-8.37 -4.66)"/><path class="cls-2" d="M31.39,125.55c1.28-1,2.6-1.93,3.93-2.85a31,31,0,0,1,4-2.72c.06,0,.16,0,.13.1a10.22,10.22,0,0,1-2.61,3.31,37.55,37.55,0,0,1-3.72,3.06c-1.31,1-2.59,2-3.81,3.1a42.68,42.68,0,0,0-3.45,3.67c-.5.58-1.3-.15-1-.77C26.31,129.59,28.9,127.45,31.39,125.55Z" transform="translate(-8.37 -4.66)"/><path class="cls-2" d="M118.8,111.22a46.25,46.25,0,0,0,1.76,5c1.27,3.09,2.72,6.1,3.93,9.22a28.64,28.64,0,0,1,2.2,9.14,11.4,11.4,0,0,1-.55,4,5.78,5.78,0,0,1-2.58,3.22.43.43,0,0,1-.5,0c0,.27.09.54.12.8a17.87,17.87,0,0,1-.25,7.21c-.62,2.26-2.39,4.93-4.68,5.79a7.57,7.57,0,0,1-3.49,3.27c-.17.08-.44-.09-.29-.29a11,11,0,0,0,1.77-2.94c.39-1.14.86-2.22,1.16-3.39a16.91,16.91,0,0,0,.45-3.61c0-.56,0-1.12,0-1.68a10.51,10.51,0,0,0,0-2c0-.1.12-.18.17-.08.29.55.67,1,.91,1.57a7.94,7.94,0,0,1,.53,2,12.46,12.46,0,0,1-.17,4.13.29.29,0,0,1,0,.09,7,7,0,0,0,.49-.72,11.4,11.4,0,0,0,1.27-3.28,19.92,19.92,0,0,0,0-6.93c-.35-2.46-.77-4.9-.88-7.38a13.68,13.68,0,0,1,1.32-6.93c0-.06.12,0,.11,0-.83,4.52.56,9.11,1.34,13.58a14.11,14.11,0,0,0,1.49-7.22,32.17,32.17,0,0,0-2.3-8.65c-1.09-3-2.3-5.9-3.29-8.91-.08-.26-.16-.52-.25-.79l0,.18c.07-1.72.18-3.44.2-5.15C118.77,110.76,118.79,111,118.8,111.22Z" transform="translate(-8.37 -4.66)"/><path class="cls-2" d="M116.71,47a26.92,26.92,0,0,1-1-7.1,23.3,23.3,0,0,0-.6-3.8,10.29,10.29,0,0,0-.54-1.53,6.47,6.47,0,0,1-.52-1.25.12.12,0,0,1,.12-.16c.86,0,1.54,1,1.93,1.62a10.82,10.82,0,0,1,1.18,3.28c.51,2.28.51,4.64,1.08,6.9a16,16,0,0,0,3.47,6.68,11.55,11.55,0,0,0,2.8,2.32,11,11,0,0,0,2,.85h.29a17.38,17.38,0,0,1-5-.16c-.34-.28-.66-.56-.94-.83A17.42,17.42,0,0,1,116.71,47Z" transform="translate(-8.37 -4.66)"/><path class="cls-2" d="M68.84,68.3c0-.08.12-.08.13,0,.12,1.2.45,2.39.67,3.58s.5,2.45.75,3.68c.48,2.42,1.13,4.8,1.83,7.17a51,51,0,0,0,6,13.34,29.92,29.92,0,0,0,7.22,7.5c2.4,1.8,5.32,3.64,8.42,3.25-.18-.95-.36-1.89-.55-2.83l-.21-1A10.11,10.11,0,0,1,89,101.74,22.26,22.26,0,0,1,83.82,98a31.94,31.94,0,0,1-7.23-9.83c0-.1.08-.23.16-.13,1,1.34,2.23,2.58,3.37,3.84a55.22,55.22,0,0,0,4.37,4.42c2.4,2.14,5,4.11,8.16,4.73-.15-.64-.31-1.28-.49-1.91a1,1,0,0,1-.61-.27c-1.24-1.16-2.65-2.13-3.91-3.27a43.85,43.85,0,0,1-3.81-4A54.09,54.09,0,0,1,77,81.17c-3.51-7-6.23-16-3.31-23.59a12.66,12.66,0,0,1,2.76-4.67,5.18,5.18,0,0,0-.67-.57c-.77-.57-1.6-1-2.38-1.55a.17.17,0,0,1,0-.3c1.89-1.12,4.84.67,5.87,2.29a1.09,1.09,0,0,1-1.67,1.35,26.51,26.51,0,0,0,.86,5.25,34.37,34.37,0,0,0,1.94,5.94A32.59,32.59,0,0,0,87.12,75c5.61,5.65,13.11,9.16,20.84,10.79a33.79,33.79,0,0,0,12.1.71,23.46,23.46,0,0,0,11.62-5.68c3.55-3.14,7.24-8.68,7.29-13.85a18.13,18.13,0,0,0,.43-6.23,11,11,0,0,1,1.24,2.79c1.06,3.69.12,7.64-1.49,11a26.27,26.27,0,0,1-8.38,9.83A24.81,24.81,0,0,1,118.53,89a39.06,39.06,0,0,1-12-1.19c0,.28.09.55.16.81a12.71,12.71,0,0,1,.59,2.47,17.09,17.09,0,0,1-3.09-1.46l.68.31c0-.28-.09-.54-.14-.78-.08-.45-.19-.93-.26-1.42h0l.35-.34a8.69,8.69,0,0,1-3.36-.93l.74.11a42.2,42.2,0,0,1-16.53-10,32.2,32.2,0,0,1-6.7-9.78A27.68,27.68,0,0,1,77,60.88a30.85,30.85,0,0,1-.78-5.73c-.18.42-.36.85-.53,1.29,0,.14,0,.28-.08.42a19.3,19.3,0,0,0-.85,9.67c-.1-.49-.19-1-.26-1.48a34.7,34.7,0,0,0,2.26,10.41A49.64,49.64,0,0,0,82.17,86h0a20,20,0,0,0,1.59,2.29,43.31,43.31,0,0,0,6.36,6.74l.75.63a44.4,44.4,0,0,1,3.3,13c-2.79.81-6.06-.82-8.35-2.26a33.09,33.09,0,0,1-8-7.18,41.37,41.37,0,0,1-6.38-12.07,46.12,46.12,0,0,1-2.86-14.35C68.62,71.34,68.8,69.84,68.84,68.3Z" transform="translate(-8.37 -4.66)"/><path class="cls-3" d="M119.74,55c.8,0,1.61,0,2.42-.07l-.3-.24a17.38,17.38,0,0,0,5,.16,19.21,19.21,0,0,1,7,1.3,11.7,11.7,0,0,1,5.5,4.61A18.13,18.13,0,0,1,139,67c0-.16,0-.32,0-.49-1.16,4.14-5.33,7.64-9.54,8.64a10.34,10.34,0,0,1-9.54-2.4,23.45,23.45,0,0,1-7.1-8.86,6.6,6.6,0,0,1-.49-4.19,5.1,5.1,0,0,1,2.43-2.91l-.23,0A29.66,29.66,0,0,1,118,55Z" transform="translate(-8.37 -4.66)"/><path class="cls-2" d="M97.37,41.75a14.94,14.94,0,0,0,3.32,5.36l.24.27a4.65,4.65,0,0,0,1.92,1.8l-.13,0a26.75,26.75,0,0,0,3,2.44,17.9,17.9,0,0,0,4.76,2.4,28.33,28.33,0,0,1-3.1-6.42c-.49-1.32-.94-2.66-1.38-4a19.54,19.54,0,0,0-1.92-5.12c.14.21.27.42.4.64A37.6,37.6,0,0,0,101,31.8a12.54,12.54,0,0,0-1.22-1.58A6.58,6.58,0,0,1,98.65,29a.12.12,0,0,1,.07-.17c.86-.31,2,.46,2.58,1a11.26,11.26,0,0,1,2.22,2.73A24.76,24.76,0,0,1,105,35.46c.08-.32.17-.63.26-.92a8.67,8.67,0,0,1,3-4.22h0a25.39,25.39,0,0,1-1.1,4.43,24.15,24.15,0,0,0-.51,2.56,16,16,0,0,1-.26,1.73l.48,1.38c1,2.82,1.86,5.66,3,8.41.74,1.8,1.72,4,3.23,5.29a13.94,13.94,0,0,1-1.4-4.9c-.49-3.51-.07-7.2-1.25-10.57a.11.11,0,0,1,.19-.11c2.2,2.31,2.41,6.14,2.87,9.11a27.28,27.28,0,0,0,1.07,5.06,6.67,6.67,0,0,0,1,1.9A3.8,3.8,0,0,0,116,55c.66,0,1.32,0,2,0a29.66,29.66,0,0,0-3.48,1.73l-.89-.12a21.93,21.93,0,0,1-10.87-5.46c-2.76-2.4-5.4-5.6-5.77-9.37C96.93,41.57,97.3,41.54,97.37,41.75Z" transform="translate(-8.37 -4.66)"/><path class="cls-2" d="M97.79,170.82c4-1.31,7.95-3.34,10.73-6.54a14.72,14.72,0,0,0,3-5.38,13.67,13.67,0,0,0,.58-3.1c0-.18,0-.36,0-.54a5.68,5.68,0,0,1-.68.61,4.85,4.85,0,0,1-4.77.46.25.25,0,0,1,.06-.49,5.52,5.52,0,0,0,3.91-1.92,10.53,10.53,0,0,0,1.86-4.13c.84-3,1.39-6.52,3.7-8.79a.1.1,0,0,1,.16.13,15.36,15.36,0,0,0-1.12,4.8,38.42,38.42,0,0,1-.69,3.83c1.22,2.48,1.35,6.1-.52,8.15a.07.07,0,0,1-.12,0c-.08-1.5.14-3,.07-4.51,0-.43,0-.87-.08-1.31a12.74,12.74,0,0,1-.72,1.7,7,7,0,0,1,.34,1.57,11.88,11.88,0,0,1-.09,3.62,14.86,14.86,0,0,1-3.06,6.49c-2.94,3.76-7.61,6.47-12.47,6A.3.3,0,0,1,97.79,170.82Z" transform="translate(-8.37 -4.66)"/><path class="cls-2" d="M94.41,170a14.77,14.77,0,0,0,4.83-3.26c1.31-1.37,2.61-2.78,3.86-4.21.08-.09.2,0,.16.13-.44,1-.8,2-1.32,3a11.84,11.84,0,0,1-1.9,2.55,7,7,0,0,1-5.52,2.54A.39.39,0,0,1,94.41,170Z" transform="translate(-8.37 -4.66)"/><path class="cls-2" d="M87.91,152.22c-.32-1.95-1.7-3-3.37-3.9a31.18,31.18,0,0,1-4.94-2.79,14.93,14.93,0,0,1-4.55-5.4,10.6,10.6,0,0,1-1-3.34,11,11,0,0,1,.28-3.38c.06-.29.5-.21.5.07,0,2.35,1.25,4.71,2.49,6.63a16.91,16.91,0,0,0,4.58,4.73c2.64,1.82,6.63,3.51,6.17,7.36C88,152.28,87.93,152.31,87.91,152.22Z" transform="translate(-8.37 -4.66)"/><path class="cls-2" d="M88.79,150.86c-.48-1-.8-2.1-1.21-3.14s-.94-2.19-1.48-3.26a22.3,22.3,0,0,1-1.24-3,10.54,10.54,0,0,1-.49-3.39c0-.09.12-.09.15,0,.9,2.18,2.43,4.08,3.58,6.13s2.24,4.32,1.59,6.57A.5.5,0,0,1,88.79,150.86Z" transform="translate(-8.37 -4.66)"/><path class="cls-2" d="M107.55,147.22h.06c.64.43.83,1.72,1,2.42a8.12,8.12,0,0,1,.1,3.18,3.52,3.52,0,0,1-4.53,2.77c-.16-.05-.22-.31,0-.39,1.53-.73,2.79-1.48,3-3.29a20.59,20.59,0,0,0,.12-2.48C107.28,148.78,107.13,147.75,107.55,147.22Z" transform="translate(-8.37 -4.66)"/><path class="cls-2" d="M92.23,167.54c.86-1.94,1.88-3.81,2.85-5.69a20.8,20.8,0,0,0,1.14-2.67c.28-.78.35-1.68.69-2.43a.09.09,0,0,1,.14,0c1,1.18.37,3.37,0,4.65A39.12,39.12,0,0,1,94.73,167c-1.44,3.09-3.31,7.16-1,10.29.15.21-.15.51-.36.36a5.88,5.88,0,0,1-2.5-4.41A11.39,11.39,0,0,1,92.23,167.54Z" transform="translate(-8.37 -4.66)"/><path class="cls-2" d="M70.83,157.91a13,13,0,0,1-.17-3.94c0-.39.63-.52.72-.1a27.43,27.43,0,0,0,2.56,7,35.34,35.34,0,0,0,4.71,7,40.49,40.49,0,0,0,6.21,5.78c1.06.81,2.17,1.54,3.26,2.3.93.66,2,1.18,2.88,1.88a0,0,0,0,1,0,0,10.23,10.23,0,0,1-3.34-.78A18.06,18.06,0,0,1,84,175.18a33.28,33.28,0,0,1-6.78-5.86,29.1,29.1,0,0,1-5-7.42A22.41,22.41,0,0,1,70.83,157.91Z" transform="translate(-8.37 -4.66)"/><path class="cls-2" d="M52.06,129.17a.34.34,0,0,1,.58.25c-.13,1.73-.66,3.42-.82,5.16A27.68,27.68,0,0,0,52,140a31,31,0,0,0,3.54,10.7,32.41,32.41,0,0,0,16.13,14.88c.46.18.89.4,1.36.54.19.06.17.37,0,.36a17.14,17.14,0,0,1-5-1A23.38,23.38,0,0,1,63.18,163a31.25,31.25,0,0,1-7.9-8.31c-4.16-6.24-6.56-14.1-4.92-21.57A9.19,9.19,0,0,1,52.06,129.17Z" transform="translate(-8.37 -4.66)"/><path class="cls-2" d="M116.86,31.86c-.92-3.27-3.83-6.54-7.38-6.72-3.82-.2-6.94,3.94-10.78,2.39a12.57,12.57,0,0,1-2.29,1,10.84,10.84,0,0,1-3.15.48,4.84,4.84,0,0,1-2-.34,2.86,2.86,0,0,1-.83.06.5.5,0,0,1-.35-.85c1.26-1.08,2.66-1.58,3-3.38A5.6,5.6,0,0,0,93,22.2,9.7,9.7,0,0,0,92,19.73s0,0,0,0a6.23,6.23,0,0,1,2,2,4.67,4.67,0,0,1,.64,2.92,5,5,0,0,1-1.25,2.68A12.36,12.36,0,0,0,96,26.92c1.86-.5,3.58-1.37,5.4-2a.09.09,0,0,1,.1.13,5.81,5.81,0,0,1-.89,1.09,24.33,24.33,0,0,0,4.24-1.94,9.34,9.34,0,0,1,6.09-1,8.63,8.63,0,0,1,4.94,3,8.41,8.41,0,0,1,1.9,5.57A.46.46,0,0,1,116.86,31.86Z" transform="translate(-8.37 -4.66)"/><path class="cls-2" d="M116.58,32.25a4.67,4.67,0,0,1,.85,3.94.13.13,0,0,1-.24,0c-.61-.83-1.09-1.76-1.68-2.61A4.73,4.73,0,0,0,113,32a.42.42,0,0,1-.1-.76C114.15,30.38,115.73,31.16,116.58,32.25Z" transform="translate(-8.37 -4.66)"/><path class="cls-2" d="M55.77,37.08c-.25,3.24-1.25,6.26-4.22,8a.27.27,0,0,1-.32-.42c2.63-2.39,2.4-5.77,2.76-9,.32-3,1.15-6.38,4.28-7.52.14-.05.21.14.13.23a9.41,9.41,0,0,0-2.22,4.22A36.44,36.44,0,0,0,55.77,37.08Z" transform="translate(-8.37 -4.66)"/><path class="cls-2" d="M43.07,136.5a8.25,8.25,0,0,0,2.67-4.18c.83-2.88.57-6.4,3.69-7.92a.09.09,0,0,1,.11.14c-2.4,2.59-1.18,6.55-2.44,9.62a8.89,8.89,0,0,1-7.69,5.46c-.25,0-.44-.36-.22-.53C40.41,138.12,41.87,137.52,43.07,136.5Z" transform="translate(-8.37 -4.66)"/><path class="cls-2" d="M35.4,138.22a16.23,16.23,0,0,1,2.15-1,7.82,7.82,0,0,0,2-1.36,10.8,10.8,0,0,0,3-4.14s.06,0,0,0a12.5,12.5,0,0,1-.46,2.63,7.21,7.21,0,0,1-1.56,2.51c-1.18,1.24-3.44,2.69-5.19,1.79A.24.24,0,0,1,35.4,138.22Z" transform="translate(-8.37 -4.66)"/><path class="cls-2" d="M37.34,134.41c.14-.13.4.05.28.22a12.81,12.81,0,0,1-3,2.72,19.92,19.92,0,0,0-1.75,1.31,22,22,0,0,0-1.65,1.82.4.4,0,0,1-.68-.29C30.74,136.64,35.21,136.38,37.34,134.41Z" transform="translate(-8.37 -4.66)"/><path class="cls-2" d="M66,104.31a22.6,22.6,0,0,1-1.88,6.31c-1.75,4.11-3.57,8.07-3.68,12.62,0,.32-.51.52-.65.17-1.76-4.13.31-8.46,2.08-12.21,1.88-4,3.94-8.33,2.84-12.83,0-.17.21-.29.29-.12A11.79,11.79,0,0,1,66,104.31Z" transform="translate(-8.37 -4.66)"/><path class="cls-2" d="M58.94,113.27c.08-.09.21,0,.16.13a14.13,14.13,0,0,0-1.34,5.18,12.84,12.84,0,0,0,.07,2.84c.12.84.33,1.67.38,2.52a.44.44,0,0,1-.74.31c-1.26-1.46-1.26-3.76-1-5.57A10.44,10.44,0,0,1,58.94,113.27Z" transform="translate(-8.37 -4.66)"/><path class="cls-2" d="M64.59,135.79c.19.28-.17.59-.44.44-2.64-1.45-3.06-5-2.76-7.68A20.58,20.58,0,0,1,64.81,120s.08,0,.06,0a64.14,64.14,0,0,0-1.77,8,13,13,0,0,0-.08,4.08A8.59,8.59,0,0,0,64.59,135.79Z" transform="translate(-8.37 -4.66)"/><path class="cls-2" d="M64,139.21a5.56,5.56,0,0,1-6.4-5.91c0-.38.66-.54.73-.09.44,2.68,2.84,5.51,5.65,5.84C64,139.06,64.08,139.2,64,139.21Z" transform="translate(-8.37 -4.66)"/><path class="cls-2" d="M60,150.18a.27.27,0,0,1-.07.53,6.7,6.7,0,0,1-4.69-1.93,7.05,7.05,0,0,1-1.67-4.42,15.06,15.06,0,0,1,.69-5.29A26.27,26.27,0,0,1,56,134.34c0-.05.08,0,.09,0a22.7,22.7,0,0,1-.38,4.35,45,45,0,0,0-.46,4.77,8.19,8.19,0,0,0,.79,4.09A6.06,6.06,0,0,0,60,150.18Z" transform="translate(-8.37 -4.66)"/><path class="cls-2" d="M65.72,153.33a6.49,6.49,0,0,1-4.95-3.17,6.78,6.78,0,0,1-1-2.84,5,5,0,0,1,.58-2.95c.06-.13.24-.05.25.06a15.1,15.1,0,0,0,.53,2.47,10.74,10.74,0,0,0,1,2.5,11.75,11.75,0,0,0,3.69,3.8S65.8,153.34,65.72,153.33Z" transform="translate(-8.37 -4.66)"/><path class="cls-2" d="M98.17,151c-1.14-3.19.1-6.48,1.28-9.48a21.62,21.62,0,0,0,1.53-5.13,11.92,11.92,0,0,0,.07-2.53c-.08-.85-.49-1.63-.51-2.48a.16.16,0,0,1,.24-.14c1.42.69,1.91,2.87,2,4.3a12.43,12.43,0,0,1-1.14,5.15c-.65,1.7-1.44,3.35-2.2,5A10.08,10.08,0,0,0,98.28,151,.06.06,0,0,1,98.17,151Z" transform="translate(-8.37 -4.66)"/><path class="cls-2" d="M103.3,127.49a0,0,0,0,1,.08,0,11.66,11.66,0,0,1,2.64,6.62c.27,2.38-.13,5.51-2,7.2a.26.26,0,0,1-.44-.18,13.51,13.51,0,0,1,.57-3.27,14.31,14.31,0,0,0,.44-3.45,15.84,15.84,0,0,0-.32-3.5C104.07,129.7,103.58,128.63,103.3,127.49Z" transform="translate(-8.37 -4.66)"/><path class="cls-2" d="M93.73,127.61a17.79,17.79,0,0,1-1.94-2.94c0-.09.1-.13.15-.06a7.4,7.4,0,0,0,1.5,1.56,18.76,18.76,0,0,1,1.71,1.38,5.81,5.81,0,0,1,1.47,3.27A8.51,8.51,0,0,1,95,137.67c-.11.12-.35,0-.29-.17a11.27,11.27,0,0,0,.33-6.75A10.92,10.92,0,0,0,93.73,127.61Z" transform="translate(-8.37 -4.66)"/><path class="cls-2" d="M92.35,130.49a11.09,11.09,0,0,0-.95-2.11,22.38,22.38,0,0,0-1.62-2c-1-1.22-2-2.84-1.56-4.49a.49.49,0,0,1,.93,0,33.39,33.39,0,0,0,2.33,4.53c.67,1.12,1.59,2.77,1,4.1A0,0,0,0,1,92.35,130.49Z" transform="translate(-8.37 -4.66)"/><path class="cls-2" d="M114.52,126.55a5.18,5.18,0,0,1,1.78,6.52,12,12,0,0,1-5.17,5.67c-.38.23-.7-.27-.45-.57.68-.8,1.28-1.63,2-2.39a13,13,0,0,0,1.94-2.6,6.11,6.11,0,0,0-.19-6.56C114.39,126.56,114.47,126.52,114.52,126.55Z" transform="translate(-8.37 -4.66)"/><path class="cls-2" d="M59,86c.28-.58.7-1.06,1-1.63a.07.07,0,0,1,.13,0c-.08.58,0,1.16-.11,1.74s-.34,1.42-.55,2.11a15.45,15.45,0,0,1-1.81,3.61C56.27,94,54,96.16,51.24,96.13c-.21,0-.38-.31-.19-.46C53,94.12,55,92.89,56.43,90.84a19.76,19.76,0,0,0,1.75-3.15C58.46,87.11,58.77,86.55,59,86Z" transform="translate(-8.37 -4.66)"/><path class="cls-2" d="M59.29,91.77c0-.08.17-.07.16,0a11.9,11.9,0,0,1-1,3.83,24.19,24.19,0,0,1-2.65,3.88c-1.68,2.27-3.72,4.89-3.82,7.84a.22.22,0,0,1-.43.06c-.92-2.88.47-5.5,2.17-7.77.94-1.26,1.93-2.49,2.87-3.75A17.34,17.34,0,0,0,59.29,91.77Z" transform="translate(-8.37 -4.66)"/><path class="cls-2" d="M48.86,110.31c-.35,0-.29-.55,0-.64a10.07,10.07,0,0,0,4.6-3.37c1.29-1.51,2.49-3.11,3.73-4.67.05-.06.16,0,.13.08a23.42,23.42,0,0,1-3,5.79C53,109.2,51.11,110.65,48.86,110.31Z" transform="translate(-8.37 -4.66)"/><path class="cls-2" d="M43.15,112.05a.13.13,0,0,1-.1-.23,4.11,4.11,0,0,1,2.83-.54,12.43,12.43,0,0,0,3.8.13c2.39-.45,4.66-1.27,7-1.84a.07.07,0,0,1,0,.12,16.58,16.58,0,0,1-6.4,3,7,7,0,0,1-3.05-.34A8.86,8.86,0,0,0,43.15,112.05Z" transform="translate(-8.37 -4.66)"/><path class="cls-2" d="M40.41,112.55a.46.46,0,0,1-.44-.76c1.28-1.46,3.42-2.17,5.12-3a46.88,46.88,0,0,0,5.22-2.94.09.09,0,0,1,.12.12,11.43,11.43,0,0,1-4.35,3.93A22.53,22.53,0,0,1,40.41,112.55Z" transform="translate(-8.37 -4.66)"/><path class="cls-2" d="M40.51,108.92a11.31,11.31,0,0,0-2.73,2.57c-.09.15-.36.05-.3-.13a9.25,9.25,0,0,1,1.39-2.88,10.55,10.55,0,0,1,2.77-2.19c2.1-1.36,4.5-2.21,6.24-4.08a0,0,0,0,1,0,0,14,14,0,0,1-4.55,4.69C42.4,107.59,41.4,108.17,40.51,108.92Z" transform="translate(-8.37 -4.66)"/><path class="cls-2" d="M71.09,99.15a6.89,6.89,0,0,1,2.55,3.37,12.45,12.45,0,0,1,.33,4.26c-.09,1.49-.31,3-.48,4.46a16.59,16.59,0,0,0,.24,4.87.24.24,0,0,1-.44.18c-1.66-2.32-1.4-5.53-1.15-8.21.27-2.91.47-6.24-1.2-8.82C70.88,99.16,71,99.08,71.09,99.15Z" transform="translate(-8.37 -4.66)"/><path class="cls-2" d="M76,120.73c-2.33-2-1.53-6-.51-8.48,0-.12.24-.12.24,0,0,1.35,0,2.72.06,4.06a15.39,15.39,0,0,0,1,4A.45.45,0,0,1,76,120.73Z" transform="translate(-8.37 -4.66)"/><path class="cls-2" d="M80.33,108.93a.41.41,0,0,1,.76-.21c1.18,1.59.78,3.79.37,5.58-.47,2.06-1.54,4-1.82,6.11a.14.14,0,0,1-.28,0,19.17,19.17,0,0,1,.44-5.65,26.87,26.87,0,0,0,.48-2.94C80.34,110.85,80.27,109.89,80.33,108.93Z" transform="translate(-8.37 -4.66)"/><path class="cls-2" d="M66,85.75a.08.08,0,0,1-.13.1,8.75,8.75,0,0,1-1.76-2.41,9.42,9.42,0,0,1-.81-3.08c-.26-2.31.48-4.32,1.19-6.46a.21.21,0,0,1,.41.11,27.83,27.83,0,0,0-.22,5.77A16.35,16.35,0,0,0,66,85.75Z" transform="translate(-8.37 -4.66)"/><path class="cls-4" d="M105.74,95.9A23.14,23.14,0,0,0,102.05,91l-.43-.42A28.11,28.11,0,0,1,108,94.09a2.79,2.79,0,0,0-.58.18A2.52,2.52,0,0,0,105.74,95.9Z" transform="translate(-8.37 -4.66)"/><path class="cls-5" d="M105.82,119.35c-3.18-1.06-4.77-4.24-5.47-7.6A119.68,119.68,0,0,0,95.4,95.86c-.71-1.77-.18-4.42,1.94-4.07a10.66,10.66,0,0,1,4,1.26,27.18,27.18,0,0,1,4.08,6.24,50.63,50.63,0,0,1,4.33,14.43c0,.1.17.1.19,0,.76-5.33-.78-11-3.14-15.77-.34-.7-.71-1.38-1.1-2a2.52,2.52,0,0,1,1.67-1.63,2.79,2.79,0,0,1,.58-.18,20.85,20.85,0,0,1,6.67,8,24.21,24.21,0,0,1,2.07,8.82c.15,2.82,0,6-1.49,8.48a1.59,1.59,0,0,1-.13.22A14,14,0,0,1,105.82,119.35Z" transform="translate(-8.37 -4.66)"/><path class="cls-4" d="M92.7,88.19c1.26.28,2.53.55,3.79.86a13.11,13.11,0,0,1,1.73,1.12A26.5,26.5,0,0,1,101,92.65l.35.4a10.66,10.66,0,0,0-4-1.26c-2.12-.35-2.65,2.3-1.94,4.07a119.68,119.68,0,0,1,4.95,15.89c.7,3.36,2.29,6.54,5.47,7.6a14,14,0,0,0,9.29.24c-1.54,2.45-4.1,3.29-7,3.09a10.42,10.42,0,0,1-7-3c-3.69-3.9-4.32-9.88-5.4-14.88S93.4,94,88.81,90.87c-.24-.16-.48.19-.3.39a14.17,14.17,0,0,1,2.68,4.66l-1-.86a43.31,43.31,0,0,1-6.84-7.38C86.4,87,89.69,87.53,92.7,88.19Z" transform="translate(-8.37 -4.66)"/><path class="cls-6" d="M104.63,47.83a6.6,6.6,0,0,0,1.19-4.66c.49,1.5,1,3,1.53,4.45a28.33,28.33,0,0,0,3.1,6.42,17.9,17.9,0,0,1-4.76-2.4,26.75,26.75,0,0,1-3-2.44l.13,0a22.48,22.48,0,0,1,2.44,1.46,22.48,22.48,0,0,0-2.44-1.46A3.35,3.35,0,0,0,104.63,47.83Z" transform="translate(-8.37 -4.66)"/><path class="cls-7" d="M82.84,77.45a23,23,0,0,1-6.09-9.32,27.83,27.83,0,0,1-1.2-5.41,31.45,31.45,0,0,1-.21-3.21,14.38,14.38,0,0,1,.35-3.07c.17-.44.35-.87.53-1.29A30.85,30.85,0,0,0,77,60.88a27.68,27.68,0,0,0,1.91,5.88,32.2,32.2,0,0,0,6.7,9.78,42.2,42.2,0,0,0,16.53,10A39.61,39.61,0,0,1,92.7,84,30.87,30.87,0,0,1,82.84,77.45Z" transform="translate(-8.37 -4.66)"/><path class="cls-8" d="M82.17,86a49.64,49.64,0,0,1-5.41-10.58A34.7,34.7,0,0,1,74.5,65.05a21.69,21.69,0,0,0,2.69,8,30.4,30.4,0,0,0,8.45,8.87A31.67,31.67,0,0,0,95.7,86.67a29.23,29.23,0,0,0,5.7,1.14,12.65,12.65,0,0,0,2.61,0l.43-.1c.07.49.18,1,.26,1.42,0,.24.09.5.14.78A45.46,45.46,0,0,0,96,87C91.57,85.89,86.63,84.71,82.17,86Z" transform="translate(-8.37 -4.66)"/><path class="cls-9" d="M49.39,75.89a8.57,8.57,0,0,1-.26,3.49c.08-.71.14-1.42.19-2.13C49.35,76.8,49.37,76.34,49.39,75.89Z" transform="translate(-8.37 -4.66)"/><path class="cls-7" d="M99.11,42.92c.22-1.27-.12-4.6,1.89-4.54,1.41,0,2.22,2.34,2.57,3.43a6.42,6.42,0,0,1,0,4.24,4.55,4.55,0,0,1-.92,2,1,1,0,0,1-.83.24c-.29-.29-.57-.6-.85-.9a2.48,2.48,0,0,1-.23-.63,2.48,2.48,0,0,0,.23.63l-.24-.27A23.56,23.56,0,0,1,99,45a18.43,18.43,0,0,1-.19-2C98.92,43.08,99.09,43.05,99.11,42.92Z" transform="translate(-8.37 -4.66)"/><path class="cls-10" d="M101.05,44.1a2.37,2.37,0,0,1,1.08.68c-.27.95-.89,1.62-1.61,1.62s-1.46-.81-1.68-1.92A2.2,2.2,0,0,1,101.05,44.1Z" transform="translate(-8.37 -4.66)"/><path class="cls-11" d="M100.52,40.92c1,0,1.77,1.23,1.77,2.74a4,4,0,0,1-.16,1.12,2.37,2.37,0,0,0-1.08-.68,2.2,2.2,0,0,0-2.21.38,3.62,3.62,0,0,1-.08-.82C98.76,42.15,99.55,40.92,100.52,40.92Z" transform="translate(-8.37 -4.66)"/><path class="cls-12" d="M99.93,43.66c0,.51.27.91.59.91s.59-.4.59-.91-.26-.91-.59-.91S99.93,43.16,99.93,43.66Z" transform="translate(-8.37 -4.66)"/><path class="cls-7" d="M100.79,42.16a.88.88,0,1,0,.88-.88A.87.87,0,0,0,100.79,42.16Z" transform="translate(-8.37 -4.66)"/><path class="cls-13" d="M43.57,48.59c-.16.26-.32.53-.46.81.14-.28.3-.55.46-.81a1.86,1.86,0,0,0,.25.81,1.86,1.86,0,0,1-.25-.81A10.54,10.54,0,0,1,47.2,45c-1.08,2.39-.52,5.4-.91,8.13a1.61,1.61,0,0,1-.53,1.41c2.12-1.23,2.12-3.88,3.54-5.65.7-.53,1.23-1.23,1.94-1.76a25.27,25.27,0,0,1-1.77,4.76c-1.06,1.77-2.47,3.36-3,5.48a7,7,0,0,1,2.45-2.68c-1.18,1.62-2.14,3.27-1.54,5.36a11.74,11.74,0,0,0-1.46,4.11c0-.06,0-.11-.05-.16a24.67,24.67,0,0,1-.92-3.6,10.39,10.39,0,0,1-.11-1.77A6.19,6.19,0,0,1,44.9,57s0,0,0,0A11.05,11.05,0,0,0,44,58.51a8.14,8.14,0,0,0-.32,1.76A11.56,11.56,0,0,0,44,63.88a18,18,0,0,0,1.8,4.55c.11,1.71-.06,3.39,0,5.11a10,10,0,0,1-1.1-2A18.21,18.21,0,0,1,44.08,69c-.2-.93-.21-1.91-.45-2.84s-.44-1.63-.65-2.45a0,0,0,0,0-.09,0,14.27,14.27,0,0,0-.62,2.9,12.84,12.84,0,0,0,.28,3.09,8.3,8.3,0,0,0,2.11,4,3.71,3.71,0,0,1-.47,0,14.21,14.21,0,0,1-4.38-6.94,15,15,0,0,1-.72-4.35,17.44,17.44,0,0,1,.42-3.81.11.11,0,0,0-.18-.1,6.57,6.57,0,0,0-1.68,3.91c0,.26,0,.51,0,.77a13.72,13.72,0,0,1-.74-3.45,31.36,31.36,0,0,0,2.32-6.5,32.56,32.56,0,0,1,1-4.14,35.33,35.33,0,0,1,1.86-3.75s0-.05,0,0a8.73,8.73,0,0,0-4,5.33A20.19,20.19,0,0,1,38.18,48c.58-4.6,4.14-7.58,7.26-10.62a18.48,18.48,0,0,0,4.18-5.77c.63-1.4,1.16-2.85,1.77-4.27C50.82,34.58,48.7,41,44.17,46.75A2.87,2.87,0,0,0,43.57,48.59Z" transform="translate(-8.37 -4.66)"/><path class="cls-9" d="M55.13,45a13.6,13.6,0,0,1,0,4.59,16.67,16.67,0,0,0,3.36-2.32,21,21,0,0,1-1.64,2.18c-2.4,2.8-5.61,5.37-8,8.35A17.21,17.21,0,0,1,50.48,55,8.87,8.87,0,0,0,52,51.56C53.84,49.89,54.49,47.22,55.13,45Z" transform="translate(-8.37 -4.66)"/><path class="cls-13" d="M67.14,39a3.45,3.45,0,0,1-.53,1.77,4.85,4.85,0,0,0,2.47-2.48,9.31,9.31,0,0,1-5.3,8.48c.71.36,1.24-.35,1.77-.17-.62.74-1.27,1.48-1.95,2.17-2,1.14-4.06,2.13-5.94,3.22l-.64.38a27,27,0,0,0,2.74-3.29,15.38,15.38,0,0,0,2.45-5.21A40.15,40.15,0,0,0,63,38a48.5,48.5,0,0,1,.76-5.74,14.63,14.63,0,0,1,.85-2.73c.19-.45.4-1,.65-1.44A23.33,23.33,0,0,1,68,27C64.31,30.33,67.14,34.92,67.14,39Z" transform="translate(-8.37 -4.66)"/><path class="cls-9" d="M78.22,96.07a51,51,0,0,1-6-13.34c-.7-2.37-1.35-4.75-1.83-7.17l-.24-1.18c0-2.09.48-4.12.34-6.25,2.3,9.36,6.36,18.72,13.07,25.61a29.31,29.31,0,0,1-1.89-5c.69.94,1.41,1.87,2.16,2.76a43.85,43.85,0,0,0,3.81,4c1.26,1.14,2.67,2.11,3.91,3.27a1,1,0,0,0,.61.27c.18.63.34,1.27.49,1.91-3.14-.62-5.76-2.59-8.16-4.73a55.22,55.22,0,0,1-4.37-4.42C79,90.59,77.8,89.35,76.75,88c-.08-.1-.21,0-.16.13A31.94,31.94,0,0,0,83.82,98,22.26,22.26,0,0,0,89,101.74,10.11,10.11,0,0,0,93.1,103l.21,1c.19.94.37,1.88.55,2.83-3.1.39-6-1.45-8.42-3.25A29.92,29.92,0,0,1,78.22,96.07Z" transform="translate(-8.37 -4.66)"/><path class="cls-6" d="M133,78.72a10.81,10.81,0,0,0,1.28-.62,22.33,22.33,0,0,1-2.62,2.75,23.46,23.46,0,0,1-11.62,5.68,28.43,28.43,0,0,1-8,0,41.25,41.25,0,0,0,9.41-5.18A40.61,40.61,0,0,0,133,78.72Z" transform="translate(-8.37 -4.66)"/><path class="cls-13" d="M78.36,54.41A32.39,32.39,0,0,0,91.87,72.89c9.08,6.14,19.36,9.22,29.57,8.45A41.25,41.25,0,0,1,112,86.52c-1.38-.18-2.75-.42-4.07-.7C100.23,84.19,92.73,80.68,87.12,75a32.59,32.59,0,0,1-6.71-9.71,34.37,34.37,0,0,1-1.94-5.94,26.51,26.51,0,0,1-.86-5.25A1,1,0,0,0,78.36,54.41Z" transform="translate(-8.37 -4.66)"/><path class="cls-6" d="M128,75.39a12,12,0,0,0,1.46-.24c4.21-1,8.38-4.5,9.54-8.64a11.87,11.87,0,0,1,0,1.46,16.4,16.4,0,0,1-.6,1.92,16.4,16.4,0,0,0,.6-1.92A20,20,0,0,1,134.3,78.1a10.81,10.81,0,0,1-1.28.62,40.6,40.6,0,0,1-11,2.57A21.53,21.53,0,0,0,128,75.39Z" transform="translate(-8.37 -4.66)"/><path class="cls-6" d="M101.58,58.59c1.59.7,3,1.76,4.77,2.12C95.4,56.29,92.75,43.22,94,32.62a29.53,29.53,0,0,0,3,9.11.19.19,0,0,0,0,.08c.37,3.77,3,7,5.77,9.37a21.93,21.93,0,0,0,10.87,5.46l.76.11a6.85,6.85,0,0,0-1.47,1,6.85,6.85,0,0,1,1.47-1l.36,0a5.1,5.1,0,0,0-2.43,2.91,6.6,6.6,0,0,0,.49,4.19c.16.38.33.75.52,1.12A16.17,16.17,0,0,1,101.58,58.59Z" transform="translate(-8.37 -4.66)"/><path class="cls-9" d="M43.57,48.59A10.54,10.54,0,0,1,47.2,45a5.52,5.52,0,0,1,1.92-2.29A5.52,5.52,0,0,0,47.2,45a10.47,10.47,0,0,1,1.92-.88A10.47,10.47,0,0,0,47.2,45c-1.08,2.39-.52,5.4-.91,8.13a1.61,1.61,0,0,1-.53,1.41c2.12-1.23,2.12-3.88,3.54-5.65.7-.53,1.23-1.23,1.94-1.76a25.27,25.27,0,0,1-1.77,4.76c-1.06,1.77-2.47,3.36-3,5.48a7,7,0,0,1,2.45-2.68c1.18-1.6,2.58-3.18,2.9-5.13,0-.16.24-.09.26,0a6.52,6.52,0,0,1-.06,2c1.82-1.67,2.47-4.34,3.11-6.57a13.6,13.6,0,0,1,0,4.59,16.67,16.67,0,0,0,3.36-2.32,12.93,12.93,0,0,0,1.34-2.65,24.45,24.45,0,0,0,1.08-5.69c.36-3.57.43-8,3.1-10.72a9.24,9.24,0,0,1,1.85-1.31c.09-.06.17.07.1.14a5.77,5.77,0,0,0-.66,1A23.33,23.33,0,0,1,68,27c-3.71,3.36-.88,8-.88,12a3.45,3.45,0,0,1-.53,1.77,4.85,4.85,0,0,0,2.47-2.48,9.31,9.31,0,0,1-5.3,8.48c.71.36,1.24-.35,1.77-.17-.62.74-1.27,1.48-1.95,2.17A17.37,17.37,0,0,0,70.17,43a.17.17,0,0,1,.31.13c-1.48,5-6.57,7.5-10.72,10-.77.46-1.55.92-2.3,1.42a10.33,10.33,0,0,0-3.22,5c1.77-.71,3.18-2.3,5.13-2.65A11.39,11.39,0,0,0,56.72,63,6.5,6.5,0,0,1,61,61.24c-2.48,2.47-4.24,6.36-2.48,9.71,1.06,1.94,2.83,3.36,3,5.65.7-2.65,1.23-5.47.35-8.12,2.65,1.94,4.94,4.59,5.3,8.12.88-1.41.17-3.18.88-4.59a14.32,14.32,0,0,0,.75,3c-.06-.73-.1-1.46-.12-2.18,0-1.54.15-3,.19-4.58,0-.08.12-.08.13,0,.12,1.2.45,2.39.67,3.58.16.83.33,1.66.51,2.5,0-2.09.48-4.12.34-6.25,2.3,9.36,6.36,18.72,13.07,25.61a29.31,29.31,0,0,1-1.89-5A53.72,53.72,0,0,1,77,81.17c-3.51-7-6.23-16-3.31-23.59a12.66,12.66,0,0,1,2.76-4.67,5.18,5.18,0,0,0-.67-.57c-.77-.57-1.6-1-2.38-1.55a.17.17,0,0,1,0-.3c1.89-1.12,4.84.67,5.87,2.29a1.1,1.1,0,0,1-.92,1.63A32.39,32.39,0,0,0,91.87,72.89c9.08,6.14,19.36,9.22,29.58,8.45l1.15-.85-1.15.85.57,0a21.53,21.53,0,0,0,5.94-5.9,10.2,10.2,0,0,1-8.08-2.64A24.66,24.66,0,0,1,113.3,65a16.17,16.17,0,0,1-11.72-6.42c1.59.7,3,1.76,4.77,2.12C95.4,56.29,92.75,43.22,94,32.62a29.53,29.53,0,0,0,3,9.11.22.22,0,0,1,.4,0A10.92,10.92,0,0,0,99,45.07a14.29,14.29,0,0,1-.17-2,.23.23,0,0,1-.07-.1,11.21,11.21,0,0,1-.39-3.85,3,3,0,0,1,2.41-2.38c1.63-.29,2.85,1,3.68,2.44A37.6,37.6,0,0,0,101,31.8a12.54,12.54,0,0,0-1.22-1.58A6.58,6.58,0,0,1,98.65,29a.12.12,0,0,1,.07-.17c.86-.31,2,.46,2.58,1l.14.13c2.46.07,4.69-1.89,7.21-1.89,1.06,0,2.12-.35,3.18.35-.71.18-1.42.89-2.12,1.06,3.18,2.83,4.41,7.6,4.59,11.66,0-1.24-1.06-1.77-1.77-2.65,2,3.71,1.06,7.95,3.36,11.66a14.36,14.36,0,0,0,4.37,4.34,9.26,9.26,0,0,0,1.82.42,13.53,13.53,0,0,1-1.16-1A17.42,17.42,0,0,1,116.71,47a26.92,26.92,0,0,1-1-7.1,23.3,23.3,0,0,0-.6-3.8,10.29,10.29,0,0,0-.54-1.53,6.47,6.47,0,0,1-.52-1.25.12.12,0,0,1,.12-.16c.86,0,1.54,1,1.93,1.62.11.19.21.38.31.58,0-.14,0-.28,0-.41-.28-.47-.56-.94-.87-1.38A4.73,4.73,0,0,0,113,32a.42.42,0,0,1-.1-.76c1.3-.82,2.88,0,3.73,1.05a5.21,5.21,0,0,1,.36.55,4.77,4.77,0,0,0,.17-.65.43.43,0,0,1-.25-.29c-.92-3.27-3.83-6.54-7.38-6.72-3.82-.2-6.94,3.94-10.78,2.39a12.57,12.57,0,0,1-2.29,1,10.84,10.84,0,0,1-3.15.48,4.84,4.84,0,0,1-2-.34,2.86,2.86,0,0,1-.83.06.5.5,0,0,1-.35-.85c1.26-1.08,2.66-1.58,3-3.38A5.6,5.6,0,0,0,93,22.2a10.37,10.37,0,0,0-.45-1.45A3.94,3.94,0,0,0,91,19.55a2.81,2.81,0,0,1-.1,1.17,5.07,5.07,0,0,1-2,4.6c-1.79,1.36-4.34,1.54-6.51,1.54-2.54,0-5.07-.33-7.6-.51-1.09-.07-2.19-.17-3.29-.19a5.55,5.55,0,0,0-2.54.3s-.06,0,0,0a8.39,8.39,0,0,1,1-.83c-3-.37-5.83-2.3-8.58-3.33a9.08,9.08,0,0,0-4.79-.74c-1.92.35-3.16,1.87-4.06,3.5a23.9,23.9,0,0,0-1.1,2.28C50.82,34.58,48.7,41,44.17,46.75A2.87,2.87,0,0,0,43.57,48.59ZM77.38,37.24a6,6,0,0,1,3.07-2.9,3.56,3.56,0,0,1,3.8,1.08c2,2.27,1.35,5.78.6,8.39a.24.24,0,0,1-.45,0,7.69,7.69,0,0,1-2,3.23.26.26,0,0,1,0,.24c-.78,1-2.24,1.76-3.48,1.16a5.47,5.47,0,0,1-2.43-3.09A9.74,9.74,0,0,1,77.38,37.24ZM51.23,44.62c2.63-2.39,2.4-5.77,2.76-9,.32-3,1.15-6.38,4.28-7.52.14-.05.21.14.13.23a9.41,9.41,0,0,0-2.22,4.22,36.44,36.44,0,0,0-.41,4.56c-.25,3.24-1.25,6.26-4.22,8A.27.27,0,0,1,51.23,44.62Z" transform="translate(-8.37 -4.66)"/><path class="cls-9" d="M122.08,54.87l.08.07-1,0a9.81,9.81,0,0,1-.95-.52A9.26,9.26,0,0,0,122.08,54.87Z" transform="translate(-8.37 -4.66)"/><path class="cls-13" d="M108.65,28c1.06,0,2.12-.35,3.18.35-.71.18-1.42.89-2.12,1.06,3.18,2.83,4.41,7.6,4.59,11.66,0-1.24-1.06-1.77-1.77-2.65,2,3.71,1.06,7.95,3.36,11.66a14.36,14.36,0,0,0,4.37,4.34l-.31-.1.31.1a9.81,9.81,0,0,0,.95.52l-1.47,0c-1.24,0-2.5,0-3.75,0a3.8,3.8,0,0,1-.33-.37,6.67,6.67,0,0,1-1-1.9,27.28,27.28,0,0,1-1.07-5.06c-.46-3-.67-6.8-2.87-9.11a.11.11,0,0,0-.19.11c1.18,3.37.76,7.06,1.25,10.57a13.94,13.94,0,0,0,1.4,4.9c-1.51-1.24-2.49-3.49-3.23-5.29-1.13-2.75-2-5.59-3-8.41l-.48-1.38a16,16,0,0,0,.26-1.73,24.15,24.15,0,0,1,.51-2.56,25.39,25.39,0,0,0,1.1-4.43h0a8.67,8.67,0,0,0-3,4.22c-.09.29-.18.6-.26.92a24.76,24.76,0,0,0-1.52-2.94,11.12,11.12,0,0,0-2.08-2.6C103.9,30,106.13,28,108.65,28Z" transform="translate(-8.37 -4.66)"/><path class="cls-9" d="M47.35,98.86a3.62,3.62,0,0,1-.13.35A1.89,1.89,0,0,1,47.35,98.86Z" transform="translate(-8.37 -4.66)"/><path class="cls-9" d="M101.82,142q-.13-.57-.24-1.14A1.39,1.39,0,0,1,101.82,142Z" transform="translate(-8.37 -4.66)"/><path class="cls-9" d="M104.79,143.8q-.11-.41-.21-.78A5,5,0,0,1,104.79,143.8Z" transform="translate(-8.37 -4.66)"/><path class="cls-13" d="M66,104.31a8.85,8.85,0,0,0,0-.89c4.17,5.39,4.42,12.7,3.93,19.29a8.17,8.17,0,0,0,3.54,6.36c-4.42-1.77-6.72-6.36-7.07-11-.18,3.36.88,7.07-1.06,10.07,1.24-4.77-1.06-9.36-.71-14.13a3.29,3.29,0,0,1,.89-2.47,9.41,9.41,0,0,0-2.83,7.06,12.61,12.61,0,0,1-.33-3.93c.53-1.37,1.12-2.72,1.71-4.09A22.6,22.6,0,0,0,66,104.31Z" transform="translate(-8.37 -4.66)"/><path class="cls-9" d="M113.44,144.19c0-.15.09-.31.15-.46A3.53,3.53,0,0,1,113.44,144.19Z" transform="translate(-8.37 -4.66)"/><path class="cls-6" d="M113.59,143.73c-.06.15-.1.31-.15.46-.7,1.8-2.56,2.68-3.38,4.31a20.36,20.36,0,0,1,.88-3.54,44.6,44.6,0,0,0,4-9.56,9.54,9.54,0,0,0,1.36-2.33,5.18,5.18,0,0,0-1.78-6.52s-.13,0-.09.07a6.11,6.11,0,0,1,.19,6.56,13,13,0,0,1-1.94,2.6c-.22.23-.42.47-.63.71a21.58,21.58,0,0,1-3.4.88c4.07-2.51,4.94-8.62,2.88-12.81l.23,0c4.32-1.14,6.23-4.94,6.83-9,.09.27.17.53.25.79,1,3,2.2,5.93,3.29,8.91a32.17,32.17,0,0,1,2.3,8.65,14.11,14.11,0,0,1-1.49,7.22c-.78-4.47-2.17-9.06-1.34-13.58,0-.06-.08-.11-.11,0a13.68,13.68,0,0,0-1.32,6.93c.11,2.48.53,4.92.88,7.38a19.92,19.92,0,0,1,0,6.93,11.4,11.4,0,0,1-1.27,3.28,7,7,0,0,1-.49.72.29.29,0,0,0,0-.09,12.46,12.46,0,0,0,.17-4.13,7.94,7.94,0,0,0-.53-2c-.24-.58-.62-1-.91-1.57,0-.1-.19,0-.17.08a10.51,10.51,0,0,1,0,2c0,.56,0,1.12,0,1.68a16.91,16.91,0,0,1-.45,3.61c-.3,1.17-.77,2.25-1.16,3.39a11,11,0,0,1-1.77,2.94c-.15.2.12.37.29.29a5.18,5.18,0,0,0,.9-.48,11.77,11.77,0,0,1-2.55,1.72,10,10,0,0,0,.29-1.23,11.88,11.88,0,0,0,.09-3.62,7,7,0,0,0-.34-1.57,12.74,12.74,0,0,0,.72-1.7c0,.44.06.88.08,1.31.07,1.5-.15,3-.07,4.51a.07.07,0,0,0,.12,0c1.87-2,1.74-5.67.52-8.15a38.42,38.42,0,0,0,.69-3.83,15.36,15.36,0,0,1,1.12-4.8.1.1,0,0,0-.16-.13c-1.72,1.69-2.46,4.08-3.08,6.42a12.45,12.45,0,0,1,.35-3.23A3.53,3.53,0,0,0,113.59,143.73Z" transform="translate(-8.37 -4.66)"/><path class="cls-9" d="M52.12,115.64a11.56,11.56,0,0,0,.18,5.48c.71,2.12,0,4.24-.53,6.36,2.3-2.48,3.71-6.19,2.83-9.54,1.23,4.59,2.82,9.54,1.06,14.13,1.76-1.42,1.76-3.71,3-5.48.18,6.54,4.77,12,10.42,14.66-1.41.18-3.36,1.06-4.24-.35.18,3.53,2.12,6.18,3.89,9a8.45,8.45,0,0,1-3.33-2.65c.69,2.51,2.18,4.73,3,7.24a25.88,25.88,0,0,1,.36-3.71,12.52,12.52,0,0,0,1.9,3.57l0-.39a.4.4,0,0,1,.42-.36,54.48,54.48,0,0,1-.7-7.79,34,34,0,0,0-.24,7.8,34,34,0,0,1,.24-7.8c-.06-1.23-.12-2.46-.24-3.68.12,1.22.18,2.45.24,3.68.51-4.66,1.07-9.26-1.65-13.58,3.35,4.95,6.53,9.9,8.3,15.55,1.06,4.06,1.06,9.54,4.77,12-1.34-1.78-.68-3.94-.22-5.94-.23-.38-.45-.75-.66-1.13-.36-.7-.18-1.41-.53-2.11.35.7.17,1.41.53,2.11.21.38.43.75.66,1.13.08-.38.16-.76.22-1.13-.06.37-.14.75-.22,1.13,2.3,3.9,4.72,8,3.75,12.65a6,6,0,0,0,2.39-3.74,12.18,12.18,0,0,0-1.33-4,12.18,12.18,0,0,1,1.33,4c.19-.7.32-1.41.44-2.09v0c-.12.68-.25,1.39-.44,2.09.29,1.61.41,3.27.79,5a14.37,14.37,0,0,0,2.3,5.42,11.63,11.63,0,0,1,1.42-5.63c.86-1.94,1.88-3.81,2.85-5.69a20.8,20.8,0,0,0,1.14-2.67c.28-.78.35-1.68.69-2.43a.09.09,0,0,1,.14,0,3.41,3.41,0,0,1,.47,2.55c1.25,3.31.31,7.15-1.69,10.05a14,14,0,0,0,3.41-2.57c1.31-1.37,2.61-2.78,3.86-4.21.08-.09.2,0,.16.13-.36.83-.67,1.67-1.05,2.49a16.82,16.82,0,0,0,5.73-7.61v-.06c-2.47,2.3-6.36,1.95-8.12,5.13,1.06-3.36,2.82-7.95.17-11,0,2.12-1.23,3.89-1.59,5.83.18-1.41.36-2.65-.53-3.88-1.94-2.65-4.77-4.24-5.47-7.42,0,2.65-.89,5.47,0,8.12-.89-1.52-1.74-3.11-2.53-4.75a4.82,4.82,0,0,1-.18,1.18.5.5,0,0,1-.9.11c-.48-1-.8-2.1-1.21-3.14s-.94-2.19-1.48-3.26a22.3,22.3,0,0,1-1.24-3,10.54,10.54,0,0,1-.49-3.39c0-.09.12-.09.15,0A28.16,28.16,0,0,0,87,142.44a33,33,0,0,1-1.53-13.73A6,6,0,0,0,83,133.66c-.17-1.95-1.06-3.89-.88-5.83.53-3.89,2.12-7.77.53-11.66,4.24,5.83,7.24,12.72,7.24,20.14a17.51,17.51,0,0,0,.88-8.73c-.33-.42-.67-.82-1-1.22-1-1.22-2-2.84-1.56-4.49a.49.49,0,0,1,.93,0,33.39,33.39,0,0,0,2.33,4.53c.67,1.12,1.59,2.77,1,4.1,0,0,0,0,0,0,.47,3.39-.27,7-.38,10.56,0,1.41,1.06,2.47,1.06,3.88.53-1.59.71-3.18,1.77-4.59-1.06,3.89,1.24,7.42,3.18,10.6,0-.11,0-.22,0-.33-.94-3.09.25-6.25,1.39-9.14a21.62,21.62,0,0,0,1.53-5.13,11.92,11.92,0,0,0,.07-2.53c-.08-.85-.49-1.63-.51-2.48a.16.16,0,0,1,.24-.14c1.42.69,1.91,2.87,2,4.3a12.43,12.43,0,0,1-1.14,5.15c-.65,1.7-1.44,3.35-2.2,5a16.78,16.78,0,0,0-.78,2,24.37,24.37,0,0,1,2.75-4.86,1.64,1.64,0,0,0,.42-.8q-.13-.57-.24-1.14a1.39,1.39,0,0,1,.24,1.14c.6,2.66,1.5,5.42.11,8.05a6,6,0,0,0,2.86-6.29q-.11-.41-.21-.78a5,5,0,0,1,.21.78c.95,3.59,1.81,8.11-.34,11.24,1.38-.68,2.48-1.45,2.7-3.13a20.59,20.59,0,0,0,.12-2.48c0-.65-.14-1.68.28-2.21h.06c.64.43.83,1.72,1,2.42a8.12,8.12,0,0,1,.1,3.18,3.52,3.52,0,0,1-4.53,2.77.18.18,0,0,1-.09-.06l0,0c.78.21,1.64.49,2.49.71a.25.25,0,0,1,.16-.43,5.52,5.52,0,0,0,3.91-1.92,10.53,10.53,0,0,0,1.86-4.13c.22-.76.41-1.56.62-2.37a12.45,12.45,0,0,1,.35-3.23c-.7,1.8-2.56,2.68-3.38,4.31a20.36,20.36,0,0,1,.88-3.54,44.6,44.6,0,0,0,4-9.56c-.21.28-.44.56-.67.83a11.36,11.36,0,0,1-3.14,2.51c-.38.23-.7-.27-.45-.57.48-.56.91-1.13,1.37-1.68a21.58,21.58,0,0,1-3.4.88c4.07-2.51,4.94-8.62,2.88-12.81a13.85,13.85,0,0,1-8.91-1.18,10.9,10.9,0,0,1-1.32-.78c-.87,1.73-3.34,1.8-5,1.34-5.12-1.12-8.07-5.73-8.18-10.66-4.84-3.2-9.65-6.85-12.13-12.12-2.63-5.65-5.44-11.38-6.28-17.45a48.76,48.76,0,0,1-3.08-6.58C66.08,81,66.08,85.26,68,88.79,63,86,61.31,80.4,58.59,75.47A11,11,0,0,1,53.18,86a4.34,4.34,0,0,0,1.59-4.15c-2.41,3-4.8,6.84-1.94,10.15-1-.13-1.4-1-1.79-1.8a17.12,17.12,0,0,1-1,6A4,4,0,0,0,51,96a.22.22,0,0,1,0-.32C53,94.12,55,92.89,56.43,90.84a19.76,19.76,0,0,0,1.75-3.15c.28-.58.59-1.14.86-1.72s.7-1.06,1-1.63a.07.07,0,0,1,.13,0c-.08.58,0,1.16-.11,1.74s-.34,1.42-.55,2.11a15.45,15.45,0,0,1-1.81,3.61l0,0A12.58,12.58,0,0,1,56.51,96l.09-.12a17.34,17.34,0,0,0,2.69-4.11c0-.08.17-.07.16,0a11.9,11.9,0,0,1-1,3.83,24.19,24.19,0,0,1-2.65,3.88,25.57,25.57,0,0,0-3.12,4.91c0,.16,0,.31,0,.46,0-.15,0-.3,0-.46a8.11,8.11,0,0,0-.7,2.93.22.22,0,0,1-.43.06v0a3.3,3.3,0,0,0,.07.77,14.54,14.54,0,0,0,1.84-1.84c1.29-1.51,2.49-3.11,3.73-4.67.05-.06.16,0,.13.08a23.42,23.42,0,0,1-3,5.79,7.21,7.21,0,0,1-3.63,2.7c-.64.47-1.35.86-2,1.31a7,7,0,0,0,1-.1c2.39-.45,4.66-1.27,7-1.84a.07.07,0,0,1,0,.12A21.77,21.77,0,0,1,52,112.27c1-.17,1.92-.49,2.93-.69a78.08,78.08,0,0,1-7.24,5.3,6.76,6.76,0,0,0-3.54,4.41C47.18,120.06,50.89,119,52.12,115.64Zm52.19,15.22c-.24-1.16-.73-2.23-1-3.37a0,0,0,0,1,.08,0,11.66,11.66,0,0,1,2.64,6.62c.27,2.38-.13,5.51-2,7.2a.26.26,0,0,1-.44-.18,13.51,13.51,0,0,1,.57-3.27,14.31,14.31,0,0,0,.44-3.45A15.84,15.84,0,0,0,104.31,130.86Zm-12.37-6.25a7.4,7.4,0,0,0,1.5,1.56,18.76,18.76,0,0,1,1.71,1.38,5.81,5.81,0,0,1,1.47,3.27A8.51,8.51,0,0,1,95,137.67c-.11.12-.35,0-.29-.17a11.27,11.27,0,0,0,.33-6.75,10.92,10.92,0,0,0-1.3-3.14,17.79,17.79,0,0,1-1.94-2.94C91.75,124.58,91.89,124.54,91.94,124.61ZM76,120.73c-2.33-2-1.53-6-.51-8.48,0-.12.24-.12.24,0,0,1.35,0,2.72.06,4.06a15.39,15.39,0,0,0,1,4A.45.45,0,0,1,76,120.73Zm5.45-6.43c-.47,2.06-1.54,4-1.82,6.11a.14.14,0,0,1-.28,0,19.17,19.17,0,0,1,.44-5.65,26.87,26.87,0,0,0,.48-2.94c.06-1,0-1.93,0-2.89a.41.41,0,0,1,.76-.21C82.27,110.31,81.87,112.51,81.46,114.3Zm-7.15,19.11c.06-.29.5-.21.5.07,0,2.35,1.25,4.71,2.49,6.63a16.91,16.91,0,0,0,4.58,4.73c2.64,1.82,6.63,3.51,6.17,7.36,0,.08-.12.11-.14,0-.32-1.95-1.7-3-3.37-3.9a31.18,31.18,0,0,1-4.94-2.79,14.93,14.93,0,0,1-4.55-5.4,10.6,10.6,0,0,1-1-3.34A11,11,0,0,1,74.31,133.41Zm-1-17.12c-1.66-2.32-1.4-5.53-1.15-8.21.27-2.91.47-6.24-1.2-8.82-.06-.1.07-.18.15-.11a6.89,6.89,0,0,1,2.55,3.37,12.45,12.45,0,0,1,.33,4.26c-.09,1.49-.31,3-.48,4.46a16.59,16.59,0,0,0,.24,4.87A.24.24,0,0,1,73.29,116.29Zm-11.9,12.26A20.58,20.58,0,0,1,64.81,120s.08,0,.06,0a64.14,64.14,0,0,0-1.77,8,13,13,0,0,0-.08,4.08,8.59,8.59,0,0,0,1.57,3.64c.19.28-.17.59-.44.44C61.51,134.78,61.09,131.23,61.39,128.55Zm.46-17.35c1.35-2.86,2.79-5.9,3.09-9l-.28-.29.28.29a11.3,11.3,0,0,0-.25-3.78c0-.17.21-.29.29-.12a11.86,11.86,0,0,1,1,5.17c4.17,5.39,4.42,12.7,3.93,19.29a8.17,8.17,0,0,0,3.54,6.36c-4.42-1.77-6.72-6.36-7.07-11-.18,3.36.88,7.07-1.06,10.07,1.24-4.77-1.06-9.36-.71-14.13a3.29,3.29,0,0,1,.89-2.47,9.41,9.41,0,0,0-2.83,7.06,12.61,12.61,0,0,1-.33-3.93,25.18,25.18,0,0,0-2,8.53c0,.32-.51.52-.65.17C58,119.28,60.08,115,61.85,111.2Zm-5.39,7.48a10.44,10.44,0,0,1,2.48-5.41c.08-.09.21,0,.16.13a14.13,14.13,0,0,0-1.34,5.18,12.84,12.84,0,0,0,.07,2.84c.12.84.33,1.67.38,2.52a.44.44,0,0,1-.74.31C56.21,122.79,56.21,120.49,56.46,118.68Z" transform="translate(-8.37 -4.66)"/><path class="cls-6" d="M95.83,169.33a15.48,15.48,0,0,1-1.42.69.39.39,0,0,0,.11.77,7,7,0,0,0,5.52-2.54,11.84,11.84,0,0,0,1.9-2.55c.1-.18.18-.35.27-.53a16.82,16.82,0,0,0,5.73-7.61,6.16,6.16,0,0,1-1.24,4.89c2.64-1.32,5.57-3.86,5.25-7l.14-.14c0,.18,0,.36,0,.54a13.67,13.67,0,0,1-.58,3.1,14.72,14.72,0,0,1-3,5.38,19.24,19.24,0,0,1-4.88,4c.14-.15.28-.32.41-.49-.13.17-.27.34-.41.49a30.44,30.44,0,0,1-5.85,2.58.3.3,0,0,0,.08.58l.28,0c-1.36.45-2.77.81-4.16,1.27a3,3,0,0,0-1.35,1c.06-2.29,1.17-4.69,2.09-6.68a39.12,39.12,0,0,0,2.32-5.66,15.39,15.39,0,0,0,.47-2.1C98.77,162.59,97.83,166.43,95.83,169.33Z" transform="translate(-8.37 -4.66)"/><path class="cls-13" d="M106.7,162.45a6.2,6.2,0,0,0,1.24-4.95c-2.47,2.3-6.36,1.95-8.12,5.13,1.06-3.36,2.82-7.95.17-11,0,2.12-1.23,3.89-1.59,5.83.18-1.41.36-2.65-.53-3.88-1.94-2.65-4.77-4.24-5.47-7.42,0,2.65-.89,5.47,0,8.12-.89-1.52-1.74-3.11-2.53-4.75a11.06,11.06,0,0,0-1.77-5.39c-.33-.59-.69-1.17-1.06-1.74a33,33,0,0,1-1.53-13.73A6,6,0,0,0,83,133.66c-.17-1.95-1.06-3.89-.88-5.83.53-3.89,2.12-7.77.53-11.66,4.24,5.83,7.24,12.72,7.24,20.14a17.51,17.51,0,0,0,.88-8.73c.21.26.41.52.6.8a11.09,11.09,0,0,1,.95,2.11.05.05,0,0,0,.07,0c.47,3.39-.27,7-.38,10.56,0,1.41,1.06,2.47,1.06,3.88.53-1.59.71-3.18,1.77-4.59-1.06,3.89,1.24,7.42,3.18,10.6,0-.11,0-.22,0-.33,0,.11.07.23.11.34a.06.06,0,0,0,.11,0,7.43,7.43,0,0,1,.37-3.25,24.37,24.37,0,0,1,2.75-4.86,1.64,1.64,0,0,0,.42-.8c.6,2.66,1.5,5.42.11,8.05a6,6,0,0,0,2.86-6.29c.95,3.59,1.81,8.11-.34,11.24l-.33.16a.21.21,0,0,0,0,.33l0,0c.78.21,1.64.49,2.49.71l.1.06a4.85,4.85,0,0,0,4.77-.46c.19-.15.37-.31.54-.47C112.27,158.59,109.34,161.13,106.7,162.45Z" transform="translate(-8.37 -4.66)"/><path class="cls-13" d="M68.73,132.24c3.35,4.95,6.53,9.9,8.3,15.55,1.06,4.06,1.06,9.54,4.77,12-1.34-1.78-.68-3.94-.22-5.94,2.3,3.9,4.72,8,3.75,12.65a6,6,0,0,0,2.39-3.74c.29,1.61.41,3.27.79,5a14.37,14.37,0,0,0,2.3,5.42.41.41,0,0,0,0,.11,5.88,5.88,0,0,0,2.5,4.41.25.25,0,0,0,.14,0,6.33,6.33,0,0,0,1.59,1.68,11.89,11.89,0,0,1-6.14-1.92,7.13,7.13,0,0,0,2.07.35,0,0,0,0,0,0,0c-.89-.7-2-1.22-2.88-1.88-1.09-.76-2.2-1.49-3.26-2.3a40.49,40.49,0,0,1-6.21-5.78,35.34,35.34,0,0,1-4.71-7,30,30,0,0,1-2.16-5.33c.16.12.31.25.48.36-.17-.11-.32-.24-.48-.36-.16-.56-.29-1.12-.4-1.68a.32.32,0,0,0-.3-.26,54.48,54.48,0,0,1-.7-7.79C70.89,141.16,71.45,136.56,68.73,132.24Z" transform="translate(-8.37 -4.66)"/><path class="cls-13" d="M34.77,131.46c.44-.56.88-1.12,1.28-1.69.88-1.06,1.77-2.12,1.77-3.53,0,1.41-.89,2.47-1.77,3.53-.4.57-.84,1.13-1.28,1.69A5.11,5.11,0,0,0,39.58,128a5.11,5.11,0,0,1-4.81,3.45c-1.72,2.17-3.5,4.3-3.66,7,1.32-2,4.52-2.44,6.23-4,.14-.13.4.05.28.22a12.81,12.81,0,0,1-3,2.72l-.58.41c-.41,4.79,3.06,10,7.59,11.83a13.37,13.37,0,0,1-1-5,3.87,3.87,0,0,1-1.22-2.79,3.87,3.87,0,0,0,1.22,2.79,9.3,9.3,0,0,1,.37-2.43,9.3,9.3,0,0,0-.37,2.43c1.78,1.7,5,2.13,6.55,4.28a7.6,7.6,0,0,1,1.23,1.24c1.7,3.89,1.93,8.6,5.38,11.32-.35-2.71.32-5.46.56-8.23-3.58-6-5.5-13.2-4-20.09a9.19,9.19,0,0,1,1.7-3.92.34.34,0,0,1,.58.25c-.13,1.73-.66,3.42-.82,5.16A27.68,27.68,0,0,0,52,140a31,31,0,0,0,3.54,10.7,32.41,32.41,0,0,0,16.13,14.88c.46.18.89.4,1.36.54.19.06.17.37,0,.36l-.48,0c1.2.52,2.43,1,3.6,1.58a27.9,27.9,0,0,1-3.88-6.16,22.41,22.41,0,0,1-1.38-4,12.46,12.46,0,0,1-.2-3.55,12.52,12.52,0,0,1-1.9-3.57,25.88,25.88,0,0,0-.36,3.71c-.79-2.51-2.28-4.73-3-7.24a15.13,15.13,0,0,1-.91-1.24,15.13,15.13,0,0,0,.91,1.24,9.59,9.59,0,0,1-.38-2.65,9.59,9.59,0,0,0,.38,2.65,8.45,8.45,0,0,0,3.33,2.65c-1.77-2.83-3.71-5.48-3.89-9,.88,1.41,2.83.53,4.24.35-5.65-2.65-10.24-8.12-10.42-14.66-1.24,1.77-1.24,4.06-3,5.48,1.76-4.59.17-9.54-1.06-14.13.88,3.35-.53,7.06-2.83,9.54.53-2.12,1.24-4.24.53-6.36a11.56,11.56,0,0,1-.18-5.48c-1.23,3.36-4.94,4.42-7.95,5.65a6.76,6.76,0,0,1,3.54-4.41,78.08,78.08,0,0,0,7.24-5.3c-1,.2-2,.52-2.93.69a10.2,10.2,0,0,1-1.67.42,7,7,0,0,1-3.05-.34,8.86,8.86,0,0,0-4.15-.3.13.13,0,0,1-.1-.23,4.11,4.11,0,0,1,2.83-.54,20.58,20.58,0,0,0,2.79.23c.67-.45,1.38-.84,2-1.31a4.31,4.31,0,0,1-1.83.11c-.35,0-.29-.55,0-.64a8,8,0,0,0,2.76-1.53,3.3,3.3,0,0,1-.07-.77c-.77-2.45.13-4.71,1.46-6.73a11.33,11.33,0,0,1,.7-2.66,15.32,15.32,0,0,1-2.29,2.47,30,30,0,0,1,1.68-4.64,5.51,5.51,0,0,1-1.86.32A.27.27,0,0,1,51,96a4,4,0,0,1-1,.16,15.58,15.58,0,0,1-2.28,4.12c-.36.36-.18,1.06-.18,1.59,0-.94-.55-1.74-.31-2.65a18.24,18.24,0,0,1-4.33,6.34,18.88,18.88,0,0,0,5-3.34,0,0,0,0,1,0,0A9.38,9.38,0,0,1,46.72,104c2.07-1.37,3.33-4,4-6.33.15,3.2-.35,6.92-2.42,9.47.69-.39,1.36-.81,2-1.24a.09.09,0,0,1,.12.12,11.43,11.43,0,0,1-4.35,3.93,22.53,22.53,0,0,1-5.67,2.65.46.46,0,0,1-.44-.76c1.28-1.46,3.42-2.17,5.12-3,1.09-.53,2.16-1.1,3.2-1.7,2.07-2.55,2.57-6.27,2.42-9.47-.66,2.38-1.92,5-4,6.33a18.09,18.09,0,0,1-3.38,3c-.94.68-1.94,1.26-2.83,2a11.31,11.31,0,0,0-2.73,2.57c-.09.15-.36.05-.3-.13a9.25,9.25,0,0,1,1.39-2.88,10.55,10.55,0,0,1,2.77-2.19c.41-.27.82-.51,1.25-.74a18.24,18.24,0,0,0,4.33-6.34,1.89,1.89,0,0,1,.13-.35,3.62,3.62,0,0,1-.13.35c-.24.91.31,1.71.31,2.65,0-.53-.18-1.23.18-1.59A15.58,15.58,0,0,0,50,96.15a3,3,0,0,1-.87-.12,3,3,0,0,0,.87.12,17.12,17.12,0,0,0,1-6,5,5,0,0,0-.51-.85,5,5,0,0,1,.51.85,19.74,19.74,0,0,0-.33-3.5,19.74,19.74,0,0,1,.33,3.5c.39.81.77,1.67,1.79,1.8-2.86-3.31-.47-7.12,1.94-10.15a7.05,7.05,0,0,0-.35-1.51,7.05,7.05,0,0,1,.35,1.51c.42-.53.84-1,1.24-1.51.18-.35,0-.88,0-1.41,0,.53.18,1.06,0,1.41-.4.48-.82,1-1.24,1.51A4.34,4.34,0,0,1,53.18,86a11,11,0,0,0,5.41-10.5c-.15-.27-.3-.54-.46-.81a1.88,1.88,0,0,0-1.59-1.06,1.88,1.88,0,0,1,1.59,1.06c.16.27.31.54.46.81a10.74,10.74,0,0,0-.81-3.28,10.74,10.74,0,0,1,.81,3.28C61.31,80.4,63,86,68,88.79c-1.94-3.53-1.94-7.77-1.41-11.66a48.76,48.76,0,0,0,3.08,6.58,25.17,25.17,0,0,1-.25-3.89,42.91,42.91,0,0,1-.67-4.76A14.32,14.32,0,0,1,68,72c-.71,1.41,0,3.18-.88,4.59-.36-3.53-2.65-6.18-5.3-8.12.88,2.65.35,5.47-.35,8.12-.18-2.29-2-3.71-3-5.65-1.76-3.35,0-7.24,2.48-9.71A6.5,6.5,0,0,0,56.72,63a11.39,11.39,0,0,1,2.65-6.18c-1.95.35-3.36,1.94-5.13,2.65a10.33,10.33,0,0,1,3.22-5,17.78,17.78,0,0,0-3.59,3A10.88,10.88,0,0,0,52,60.21,33.7,33.7,0,0,0,51,64c-.08.23-.45.34-.57.07a6.78,6.78,0,0,1-.16-3.84,8.15,8.15,0,0,1,.51-1.61,18.27,18.27,0,0,0-3.29,5.68c.87,5.65,6.6,12.81,1.38,17.28-.08.56-.16,1.12-.25,1.67A34.73,34.73,0,0,0,51.72,80a23.38,23.38,0,0,0,2.42-4.52c0-.1.19-.07.22,0a6.32,6.32,0,0,1-1.3,5.28c-1,1.42-2.65,3-4.53,3-.18,1-.38,2.05-.6,3.07a70.43,70.43,0,0,1-3.8,12.35l.21-.22a24.15,24.15,0,0,0,2.27-2.88,12.66,12.66,0,0,0,.81-1.49,16.2,16.2,0,0,1,.81-1.8h0a5.7,5.7,0,0,1-.41,3.54,11.85,11.85,0,0,1-1.89,3.2c-.81,1-1.72,2-2.62,2.91a14.55,14.55,0,0,1-1.64,1.75c-.31.56-.63,1.11-1,1.65a21,21,0,0,1-4.88,5.58,6.87,6.87,0,0,1-.73.51c-1.28,2.71-1.93,5.86-3.47,8.6a7.09,7.09,0,0,1-1.58,2,11.88,11.88,0,0,0,2.76-.58,11.83,11.83,0,0,1,.94-1.59,11.83,11.83,0,0,0-.94,1.59,5.56,5.56,0,0,0,2.36-1.59A5.56,5.56,0,0,1,32.81,122a22.76,22.76,0,0,0-1.24,3.41c1.23-.93,2.48-1.84,3.75-2.71a31,31,0,0,1,4-2.72c.06,0,.16,0,.13.1a10.22,10.22,0,0,1-2.61,3.31,37.55,37.55,0,0,1-3.72,3.06c-.87.66-1.73,1.34-2.57,2a.14.14,0,0,1,0,.06.14.14,0,0,0,0-.06c-.42.35-.84.71-1.24,1.07a27.52,27.52,0,0,0-2.14,2.18C29.57,131.16,32.37,131.68,34.77,131.46ZM64.46,73.9a.21.21,0,0,1,.41.11,27.83,27.83,0,0,0-.22,5.77,16.35,16.35,0,0,0,1.32,6,.08.08,0,0,1-.13.1,8.75,8.75,0,0,1-1.76-2.41,9.42,9.42,0,0,1-.81-3.08C63,78.05,63.75,76,64.46,73.9Zm-9.88-5.51a10.59,10.59,0,0,0-.78,2,15.86,15.86,0,0,1-.5,2.06.14.14,0,0,1-.23,0,4,4,0,0,1-.4-2l-.05,0A7.14,7.14,0,0,1,52.4,64a14.8,14.8,0,0,1,4.29-5.08s.07,0,.06,0c-.47.87-.88,1.75-1.36,2.61s-.91,1.68-1.29,2.55a14.15,14.15,0,0,0-.83,2.71,9.22,9.22,0,0,0-.2,1.44,7,7,0,0,1,.34-.82,4,4,0,0,1,4-2.37s.06,0,0,.08A8.26,8.26,0,0,0,54.58,68.39ZM64,139.21a5.56,5.56,0,0,1-6.4-5.91c0-.38.66-.54.73-.09.44,2.68,2.84,5.51,5.65,5.84C64,139.06,64.08,139.2,64,139.21Zm-3.21,10.95a6.78,6.78,0,0,1-1-2.84,5,5,0,0,1,.58-2.95c.06-.13.24-.05.25.06a15.1,15.1,0,0,0,.53,2.47,10.74,10.74,0,0,0,1,2.5,11.75,11.75,0,0,0,3.69,3.8s0,.14,0,.13A6.49,6.49,0,0,1,60.77,150.16Zm-6.54-11.09A26.27,26.27,0,0,1,56,134.34c0-.05.08,0,.09,0a22.7,22.7,0,0,1-.38,4.35,45,45,0,0,0-.46,4.77,8.19,8.19,0,0,0,.79,4.09,6.06,6.06,0,0,0,4,2.61.27.27,0,0,1-.07.53,6.7,6.7,0,0,1-4.69-1.93,7.05,7.05,0,0,1-1.67-4.42A15.06,15.06,0,0,1,54.23,139.07Zm-15,0c1.22-1,2.68-1.57,3.88-2.59a8.25,8.25,0,0,0,2.67-4.18c.83-2.88.57-6.4,3.69-7.92a.09.09,0,0,1,.11.14c-2.4,2.59-1.18,6.55-2.44,9.62a8.89,8.89,0,0,1-7.69,5.46C39.16,139.62,39,139.26,39.19,139.09Zm.4-3.24a10.8,10.8,0,0,0,3-4.14s.06,0,0,0a12.5,12.5,0,0,1-.46,2.63,7.21,7.21,0,0,1-1.56,2.51c-1.18,1.24-3.44,2.69-5.19,1.79a.24.24,0,0,1,0-.42,16.23,16.23,0,0,1,2.15-1A7.82,7.82,0,0,0,39.59,135.85Zm-4-17.52a.23.23,0,0,1,0-.44,45.45,45.45,0,0,0,5.2-2.08,16.15,16.15,0,0,0,2.29-1.55,12.71,12.71,0,0,0,2.35-2,.13.13,0,0,1,.22.13A11.63,11.63,0,0,1,44.29,115a10.1,10.1,0,0,1-2.62,2.21C39.93,118.32,37.65,119.08,35.64,118.33Z" transform="translate(-8.37 -4.66)"/><path class="cls-9" d="M57.64,91.89A12.58,12.58,0,0,1,56.51,96c-.92,1.21-1.87,2.41-2.78,3.63-.25.33-.49.67-.72,1a11.33,11.33,0,0,1,.7-2.66,15.32,15.32,0,0,1-2.29,2.47,30,30,0,0,1,1.68-4.64A9.58,9.58,0,0,0,57.64,91.89Z" transform="translate(-8.37 -4.66)"/><path class="cls-13" d="M96.28,123.94c-5.12-1.12-8.07-5.73-8.18-10.66l2,1.3-2-1.3a13,13,0,0,1,.06-1.53,13,13,0,0,0-.06,1.53c-4.84-3.2-9.65-6.85-12.13-12.12-3.19-6.84-6.64-13.8-6.53-21.34a49.62,49.62,0,0,0,2.07,7.41A41.37,41.37,0,0,0,77.89,99.3a33.09,33.09,0,0,0,8,7.18c2.3,1.44,5.58,3.08,8.37,2.25a33,33,0,0,0,3,9.22,13.45,13.45,0,0,0,4,4.65C100.43,124.33,98,124.4,96.28,123.94Z" transform="translate(-8.37 -4.66)"/><path class="cls-7" d="M82,46.89C81,47.5,79.94,48,79,47a6.41,6.41,0,0,1-1.09-3,8.88,8.88,0,0,1,1.15-5.72c.44-.79,1.08-1.82,2-2.06a1.85,1.85,0,0,1,2.09,1.15,9.71,9.71,0,0,1,.88,3.4,21.91,21.91,0,0,1,.3,3s0,0,0,.06a7.69,7.69,0,0,1-2,3.23A.23.23,0,0,0,82,46.89Z" transform="translate(-8.37 -4.66)"/><path class="cls-14" d="M82.22,86c4.45-1.31,9.36-.14,13.73.93a48.25,48.25,0,0,1,8.21,2.64,17.09,17.09,0,0,0,3.09,1.46v.14l.45.27a23.51,23.51,0,0,1,8.47,9.12,25.73,25.73,0,0,1,2.52,9.18c0,.25,0,.5.07.76,0,1.71-.13,3.43-.2,5.15-.63,4-2.55,7.71-6.8,8.83a13.83,13.83,0,0,1-9.14-1.13A12.66,12.66,0,0,1,97.28,118a33,33,0,0,1-3-9.22h0a44.4,44.4,0,0,0-3.3-13l.27.23a14.17,14.17,0,0,0-2.68-4.66c-.18-.2.06-.55.3-.39,4.59,3.08,5.87,8.83,7,13.89s1.71,11,5.4,14.88a10.42,10.42,0,0,0,7,3c2.94.21,5.55-.68,7.08-3.31s1.64-5.66,1.49-8.48a24.21,24.21,0,0,0-2.07-8.82c-2.53-5.48-7.51-9.3-13-11.46l.43.42A25.5,25.5,0,0,1,106.84,98c2.36,4.76,3.9,10.44,3.14,15.77,0,.1-.18.1-.19,0a50.63,50.63,0,0,0-4.33-14.43A27,27,0,0,0,101,92.65a26.5,26.5,0,0,0-2.81-2.48,13.11,13.11,0,0,0-1.73-1.12c-1.26-.31-2.53-.58-3.79-.86-3-.66-6.3-1.19-9.37-.51l.48.64A20,20,0,0,1,82.22,86Z" transform="translate(-8.37 -4.66)"/><path class="cls-3" d="M105.82,43.17a6.6,6.6,0,0,1-1.19,4.66,3.35,3.35,0,0,1-1.78,1.35,4.65,4.65,0,0,1-1.92-1.8c.28.3.56.61.85.9a1,1,0,0,0,.83-.24,4.55,4.55,0,0,0,.92-2,6.42,6.42,0,0,0,0-4.24c-.35-1.09-1.16-3.39-2.57-3.43-2-.06-1.67,3.27-1.89,4.54,0,.18-.32.17-.36,0a11.21,11.21,0,0,1-.39-3.85,3,3,0,0,1,2.41-2.38c1.38-.25,2.47.64,3.28,1.8A19.54,19.54,0,0,1,106,43.61Z" transform="translate(-8.37 -4.66)"/><path class="cls-3" d="M75.61,56.86a13,13,0,0,0-.27,2.65,31.45,31.45,0,0,0,.21,3.21,27.83,27.83,0,0,0,1.2,5.41,23,23,0,0,0,6.09,9.32A30.87,30.87,0,0,0,92.7,84a40.46,40.46,0,0,0,8.7,2.5,8.69,8.69,0,0,0,3.36.93l-.35.34a4,4,0,0,1-.4.09,12.65,12.65,0,0,1-2.61,0,29.23,29.23,0,0,1-5.7-1.14A31.67,31.67,0,0,1,85.64,81.9,30.4,30.4,0,0,1,77.19,73a21,21,0,0,1-2.43-6.5A19.3,19.3,0,0,1,75.61,56.86Z" transform="translate(-8.37 -4.66)"/><path class="cls-3" d="M79,47c.91,1.07,2,.54,3-.07.25-.15.47.18.3.39-.78,1-2.24,1.76-3.48,1.16a5.47,5.47,0,0,1-2.43-3.09,9.74,9.74,0,0,1,1-8.11,6,6,0,0,1,3.07-2.9,3.56,3.56,0,0,1,3.8,1.08c2,2.27,1.35,5.78.6,8.39a.24.24,0,0,1-.46-.06,21.91,21.91,0,0,0-.3-3,9.71,9.71,0,0,0-.88-3.4,1.85,1.85,0,0,0-2.09-1.15c-1,.24-1.59,1.27-2,2.06A8.88,8.88,0,0,0,77.94,44,6.41,6.41,0,0,0,79,47Z" transform="translate(-8.37 -4.66)"/><path class="cls-10" d="M81.44,43a2.34,2.34,0,0,1,1.09.68c-.28,1-.9,1.62-1.61,1.62s-1.46-.81-1.69-1.92A2.2,2.2,0,0,1,81.44,43Z" transform="translate(-8.37 -4.66)"/><path class="cls-11" d="M80.92,39.86c1,0,1.76,1.23,1.76,2.74a4.39,4.39,0,0,1-.15,1.12A2.34,2.34,0,0,0,81.44,43a2.2,2.2,0,0,0-2.21.38,4.3,4.3,0,0,1-.08-.82C79.15,41.09,79.94,39.86,80.92,39.86Z" transform="translate(-8.37 -4.66)"/><path class="cls-12" d="M80.33,42.6c0,.51.26.91.59.91s.58-.4.58-.91-.26-.91-.58-.91S80.33,42.1,80.33,42.6Z" transform="translate(-8.37 -4.66)"/><path class="cls-7" d="M81.18,41.1a.89.89,0,1,0,.88-.88A.88.88,0,0,0,81.18,41.1Z" transform="translate(-8.37 -4.66)"/><path class="cls-2" d="M53.94,161.17c-1.74-1-2.57-2.76-3.43-4.53s-1.5-3.88-2.46-5.75a10.55,10.55,0,0,0-4.15-4.15c-1.69-1-3.6-1.54-4.48-3.46,0-.05,0-.11.08-.06C41,144.76,43,145.13,44.89,146A9.77,9.77,0,0,1,49,149.75a18.22,18.22,0,0,1,2.15,5.52A14.13,14.13,0,0,0,54,161.14s0,.05,0,0Z" transform="translate(-8.37 -4.66)"/><path class="cls-2" d="M51,150.56c-.33-2.68-2.65-4.68-3.68-7.1a6.89,6.89,0,0,1-.65-3.34,6.59,6.59,0,0,1,1.45-3.28c.05-.06.16,0,.13.08-1,2.34-.27,4.63.63,6.88A30.8,30.8,0,0,1,51,150.55s0,0,0,0Z" transform="translate(-8.37 -4.66)"/><path class="cls-2" d="M42.15,150c-.65-.81-1.79-1-2.69-1.5a11,11,0,0,1-2.36-1.77,11.3,11.3,0,0,1-2.77-4.05,8.59,8.59,0,0,1-.77-4.29,2.81,2.81,0,0,1,.67-1.66c.33-.28.88-.67,1.31-.44a.19.19,0,0,1,.09.15c-.05.39-.43.75-.66,1.08a2.58,2.58,0,0,0-.34,1.63,10.22,10.22,0,0,0,1.15,3.75,12,12,0,0,0,3,3.77c1.21,1.07,2.6,1.86,3.43,3.29,0,0,0,.06-.05,0Z" transform="translate(-8.37 -4.66)"/><path class="cls-2" d="M37.5,126.89a8,8,0,0,1-.74,3,14.65,14.65,0,0,1-2,2.91,20.79,20.79,0,0,0-2.08,2.85,11.44,11.44,0,0,0-1,3.33.31.31,0,0,1-.57.07c-1.32-2,.37-4.65,1.63-6.18.81-1,1.71-1.88,2.57-2.82a8.8,8.8,0,0,0,2.15-3.17s.09,0,.08,0Z" transform="translate(-8.37 -4.66)"/><path class="cls-2" d="M35.61,128.55a8.61,8.61,0,0,1-3.86,3.27c-1.61.73-3.6,1.57-4.57,3.12a.09.09,0,0,1-.17-.07,4.75,4.75,0,0,1,3.12-3.8c1.72-.77,4.08-1.17,5.42-2.56,0,0,.08,0,.06,0Z" transform="translate(-8.37 -4.66)"/><path class="cls-2" d="M25.2,138.56a7.37,7.37,0,0,1-.48-5.56,7.83,7.83,0,0,1,3.87-4.38.31.31,0,0,1,.38.49,12.09,12.09,0,0,0-3.73,9.43,0,0,0,0,1,0,0Z" transform="translate(-8.37 -4.66)"/><path class="cls-2" d="M53.82,159c-.58-1.77-.12-3.65-.19-5.47s-.86-3.73-.82-5.6c0-.35.48-.61.73-.31,1.18,1.43,1.47,3.55,1.61,5.34a8.1,8.1,0,0,1-.31,2.68,18.46,18.46,0,0,0-1,3.35s0,0,0,0Z" transform="translate(-8.37 -4.66)"/><path class="cls-2" d="M28.27,123.93c2.18-2.24,3.27-5.24,4.13-8.19a17.55,17.55,0,0,1,1.31-3.66c.47-.84,1.41-2,2.46-2a.17.17,0,0,1,.14.25c-3.2,4.16-2.36,11.39-8,13.59a0,0,0,0,1,0,0Z" transform="translate(-8.37 -4.66)"/><path class="cls-2" d="M36.17,119.24A6,6,0,0,1,33.58,122c-.93.49-2.49,1.27-3.49.66a.13.13,0,0,1-.05-.19c.61-.92,2.07-.94,3-1.35a22.53,22.53,0,0,0,3.09-1.88s0,0,0,0Z" transform="translate(-8.37 -4.66)"/><path class="cls-15" d="M117.83,60.44c0,1.51,4.19,2.74,9.36,2.74s9.37-1.23,9.37-2.74-4.2-2.74-9.37-2.74S117.83,58.93,117.83,60.44Z" transform="translate(-8.37 -4.66)"/><path class="cls-16" d="M83.54,144.27c-1.32-1.77-3.19-2.92-4.6-4.59a13.3,13.3,0,0,1-2.53-5.88c-.45-2.17-.67-4.39-1.13-6.57a20,20,0,0,0-.8-3A28.18,28.18,0,0,0,72.83,121c-.09-.17.11-.3.25-.19A11.49,11.49,0,0,1,75,123.12a11,11,0,0,1,1.48,2.9,33.88,33.88,0,0,1,1.33,6.48A17.63,17.63,0,0,0,80,138.89c1.08,1.86,2.61,3.44,3.63,5.35,0,0,0,.06,0,0Z" transform="translate(-8.37 -4.66)"/><path class="cls-16" d="M80.73,136.49c-2-4.53-5.91-8.34-6.39-13.43a.22.22,0,0,1,.4-.11c1.22,2.23,2.47,4.42,3.61,6.68a21.85,21.85,0,0,1,2.4,6.85s0,0,0,0Z" transform="translate(-8.37 -4.66)"/><path class="cls-16" d="M90.43,168.46c-.15-2.7,1-5.4,2.25-7.75,1.34-2.63,2.14-5.31,1.43-8.27a.24.24,0,0,1,.43-.18c3.92,5.57-2.65,11-4.07,16.2,0,0,0,0,0,0Z" transform="translate(-8.37 -4.66)"/><path class="cls-16" d="M97.15,146A18.73,18.73,0,0,1,97,141.3a40,40,0,0,1,1.14-4.93c.84-3.53.68-7-1.42-10.09-.06-.09.07-.17.15-.1a9.46,9.46,0,0,1,3.09,4.21,10.44,10.44,0,0,1,.07,5c-.3,1.75-.89,3.43-1.36,5.14s-1.37,3.59-1.49,5.52c0,0,0,0,0,0Z" transform="translate(-8.37 -4.66)"/><path class="cls-16" d="M103.86,133.83c-.25-2.28-2.36-4-4.12-5.15a27.06,27.06,0,0,1-5.32-3.94c-.09-.1,0-.29.16-.2,2.08,1.44,4.62,2,6.71,3.41a7.78,7.78,0,0,1,2.43,2.48c.61,1,.33,2.3.18,3.41,0,0,0,0,0,0Z" transform="translate(-8.37 -4.66)"/><path class="cls-16" d="M108.15,127.28A12,12,0,0,1,110,136a17.79,17.79,0,0,1-1.37,3.93,12.22,12.22,0,0,0-1.07,4.53c0,.18-.27.28-.36.1-1.15-2.44.32-5.21,1.09-7.56,1-3.17.26-6.47-.25-9.66a0,0,0,0,1,.07,0Z" transform="translate(-8.37 -4.66)"/><path class="cls-16" d="M86.72,160.34a26.8,26.8,0,0,1-1.23-3.67A19.26,19.26,0,0,0,84,153c-1.54-2.79-4.65-4.21-5.93-7.16a.07.07,0,0,1,.11-.08,14.07,14.07,0,0,0,2.43,1.35,10.34,10.34,0,0,1,2,1.46,14,14,0,0,1,2.85,3.56,13.56,13.56,0,0,1,1.32,8.17s0,0,0,0Z" transform="translate(-8.37 -4.66)"/><path class="cls-16" d="M87.28,152.72c1.85.46,1.64,3.05,1.43,4.49a27.28,27.28,0,0,1-1.89,6c0,.06-.13.08-.15,0-.39-1.74.35-3.46.77-5.12a10.76,10.76,0,0,0,.44-2.92,8.33,8.33,0,0,0-.62-2.4,0,0,0,0,1,0,0Z" transform="translate(-8.37 -4.66)"/><path class="cls-16" d="M68.5,138.45a5.83,5.83,0,0,1-.5-1.36,7,7,0,0,0-.79-1.54c-.64-1-1.44-1.92-2.13-2.89a10.18,10.18,0,0,1-1.5-2.84,4,4,0,0,1,.59-3.13.17.17,0,0,1,.31.08c-.08,2.22,1.16,4.3,2.35,6.08a15.58,15.58,0,0,1,1.53,2.88,3.38,3.38,0,0,1,.24,2.72.06.06,0,0,1-.1,0Z" transform="translate(-8.37 -4.66)"/><path class="cls-16" d="M79.5,127c-2.68-2.72-2.69-6.18-2.29-9.75.21-1.83.55-3.64.72-5.48a8.06,8.06,0,0,0-1.47-5.24s0-.1.07-.06c2.49,2.44,2.7,6.11,2.38,9.39-.36,3.67-1.3,7.72.6,11.13,0,0,0,0,0,0Z" transform="translate(-8.37 -4.66)"/><path class="cls-16" d="M82.88,110.68a11.11,11.11,0,0,1,1,3.12,10.67,10.67,0,0,1-.36,3.77,36.7,36.7,0,0,0-1.52,8,.18.18,0,0,1-.35,0c-.95-2.29-.35-4.78.3-7.06s1.81-5.34.9-7.82c0,0,0,0,0,0Z" transform="translate(-8.37 -4.66)"/><path class="cls-16" d="M57.91,106.08a46.67,46.67,0,0,0,2.85-3.85,14.16,14.16,0,0,0,1.76-4.84,10.43,10.43,0,0,0-.73-5.26,5.11,5.11,0,0,1,.28-4.65.14.14,0,0,1,.26.11c-.26,1.89,1.05,3.77,1.6,5.5a10.39,10.39,0,0,1,.15,5.28A11.46,11.46,0,0,1,61.77,103,9.92,9.92,0,0,1,58,106.15s-.07,0-.05-.07Z" transform="translate(-8.37 -4.66)"/><path class="cls-16" d="M69.83,90.36c1.26,2.93.43,6-.08,9a11.11,11.11,0,0,0,.34,5,33.53,33.53,0,0,1,1.12,4.52.19.19,0,0,1-.37.1c-1.15-2.89-2.81-5.41-2.62-8.65.2-3.41,1.92-6.48,1.52-10,0,0,.07-.07.09,0Z" transform="translate(-8.37 -4.66)"/><path class="cls-16" d="M63.32,61.24c-.13,1.56-1.22,3-1.88,4.39A11.15,11.15,0,0,0,60.52,71a.27.27,0,0,1-.51.14,4.94,4.94,0,0,1,0-5.28,22.56,22.56,0,0,1,1.53-2.23c.57-.78,1-1.65,1.67-2.39a.07.07,0,0,1,.12.05Z" transform="translate(-8.37 -4.66)"/><path class="cls-16" d="M70.16,57.38A8.83,8.83,0,0,0,66.73,64c-.2,2.41.56,4.73.55,7.13a.15.15,0,0,1-.27.07,14.31,14.31,0,0,1-1.52-7.83,7,7,0,0,1,1.25-3.57,7.74,7.74,0,0,1,3.39-2.48s.06,0,0,.06Z" transform="translate(-8.37 -4.66)"/><path class="cls-16" d="M67.19,51a10.82,10.82,0,0,1-3.11,4.14,15.86,15.86,0,0,1-4.78,2.94c-.42.14-.62-.39-.39-.67,1-1.28,2.67-2,4-2.9A17.34,17.34,0,0,0,67.1,51s.11,0,.09.06Z" transform="translate(-8.37 -4.66)"/><path class="cls-16" d="M111.69,58c-1.62.74-3.84.16-5.37-.52a18.35,18.35,0,0,1-5.38-3.77A21.65,21.65,0,0,1,95,42.53c0-.07.07-.09.09,0a32.26,32.26,0,0,0,6.47,9.84,19,19,0,0,0,4.74,3.76,16.48,16.48,0,0,0,2.59,1c.91.3,1.89.37,2.78.67a.08.08,0,0,1,0,.14Z" transform="translate(-8.37 -4.66)"/><path class="cls-16" d="M100.91,34.12c-1-1.4-2.14-2.61-4-2.72-1.66-.11-3.29-.16-4.94-.4-.18,0-.12-.28,0-.3,1.95-.14,3.75-.93,5.73-.62s3,2.11,3.44,3.91a.17.17,0,0,1-.3.13Z" transform="translate(-8.37 -4.66)"/><path class="cls-16" d="M91,25.77a7.7,7.7,0,0,1-3.63,3.16,4.33,4.33,0,0,1-4.59-.68.31.31,0,0,1,.3-.52c1.43.29,2.57.68,4,.24a10.63,10.63,0,0,0,3.78-2.29c.06-.05.16,0,.11.09Z" transform="translate(-8.37 -4.66)"/><path class="cls-16" d="M77.4,28.44a24.11,24.11,0,0,1-3.89.32,10.78,10.78,0,0,0-2.26.3c-.71.2-1.34.58-2.07.76a.4.4,0,0,1-.44-.58c.75-1.25,2.33-1.49,3.68-1.53a37.74,37.74,0,0,1,5,.61c.07,0,.09.11,0,.12Z" transform="translate(-8.37 -4.66)"/><path class="cls-16" d="M115.5,30.36c-.76-.72-1.54-1.47-2.33-2.16a7.14,7.14,0,0,0-3.38-1.61c-.36-.08-.27-.54,0-.65,1.38-.58,2.59.09,3.67,1a7.77,7.77,0,0,1,2.13,3.39c0,.05-.06.09-.09.05Z" transform="translate(-8.37 -4.66)"/><path class="cls-16" d="M63,25.87c-1.85-.38-3.51-1.57-5.42-1.71s-3.14,1.76-4.4,3A.31.31,0,0,1,52.7,27a4.67,4.67,0,0,1,4.4-4.39,8.21,8.21,0,0,1,6.08,3.05.15.15,0,0,1-.14.24Z" transform="translate(-8.37 -4.66)"/><path class="cls-16" d="M61.89,27.73a9.72,9.72,0,0,0-2.52,4.35,21.38,21.38,0,0,0-.2,4.8c0,2.79.16,6.56-2.24,8.49a.3.3,0,0,1-.47-.36,12.84,12.84,0,0,0,1.24-4.63c.08-1.6-.06-3.21,0-4.82.11-3,1.07-6.59,4.11-8,.08,0,.15.05.09.12Z" transform="translate(-8.37 -4.66)"/><path class="cls-16" d="M55.92,42.84c.32,2-1,4.75-3.2,5-.23,0-.49-.25-.26-.44a8.43,8.43,0,0,0,3.29-4.61c0-.08.16-.09.17,0Z" transform="translate(-8.37 -4.66)"/><path class="cls-16" d="M52.91,35.62c.34,3.11-.06,7.06-3,8.85a.42.42,0,0,1-.57-.58,20.94,20.94,0,0,0,2.3-3.72,18.78,18.78,0,0,0,1.16-4.55.08.08,0,0,1,.16,0Z" transform="translate(-8.37 -4.66)"/><path class="cls-17" d="M178.73,30.82H209q9.58,0,14.72,4.85a15.88,15.88,0,0,1,5.14,12A16.25,16.25,0,0,1,224,59.6a15.94,15.94,0,0,1-11.75,4.91q-5.73,0-11.42-4.35V80.74H178.73Zm22.08,10.79V52.47a7,7,0,0,0,1.84.26,5.38,5.38,0,0,0,4-1.57A5.65,5.65,0,0,0,208.21,47a5.73,5.73,0,0,0-1.31-4,4.76,4.76,0,0,0-3.73-1.46Z" transform="translate(-8.37 -4.66)"/><path class="cls-17" d="M279.17,41.35V80.74H259.8v-6.9h-.13a21.29,21.29,0,0,1-6.09,5.49,14.88,14.88,0,0,1-7.39,1.74,13.72,13.72,0,0,1-10-3.67q-3.78-3.66-3.78-10.27V41.35h19.1V62.58c0,3.58,1.23,5.37,3.67,5.37a4,4,0,0,0,3.7-2.1V41.35Z" transform="translate(-8.37 -4.66)"/><path class="cls-17" d="M307.2,50q3.87-9,11.19-9a9.07,9.07,0,0,1,6.74,2.69,9.24,9.24,0,0,1,2.65,6.8,9.57,9.57,0,0,1-2.6,7,9.05,9.05,0,0,1-6.79,2.67,10.87,10.87,0,0,1-8.18-3.6q-3,2.55-3,9.49V80.74H287V41.35H307.2Z" transform="translate(-8.37 -4.66)"/><path class="cls-17" d="M370.21,65.72v6.91q-6.65,8.7-19.1,8.7-10.28,0-16.53-5.71t-6.24-15q0-8.87,5.74-14.46t14.9-5.6a23.61,23.61,0,0,1,8.67,1.57,19.2,19.2,0,0,1,11.19,11.68,30.8,30.8,0,0,1,1.37,9.82H349.57a9.32,9.32,0,0,0,3.73,4.71,10.76,10.76,0,0,0,6,1.7A14.45,14.45,0,0,0,370.21,65.72Zm-21.85-9h9.52a7.69,7.69,0,0,0-1.46-4.59A4.22,4.22,0,0,0,353,50.44,4.17,4.17,0,0,0,349.73,52,7,7,0,0,0,348.36,56.69Z" transform="translate(-8.37 -4.66)"/><path class="cls-17" d="M396.55,30.82V42.56A20.48,20.48,0,0,1,404.2,41a18.77,18.77,0,0,1,13.87,5.56,19,19,0,0,1,5.53,14,19.55,19.55,0,0,1-5.79,14.33q-5.79,5.82-16.29,5.82H376.33V30.82Zm0,35.59H397a21.47,21.47,0,0,0,4-.28,3.84,3.84,0,0,0,2.32-1.37,5.4,5.4,0,0,0,.9-3.45A4.9,4.9,0,0,0,403,57.84a4.14,4.14,0,0,0-3.2-1.28,6.77,6.77,0,0,0-3.27.92Z" transform="translate(-8.37 -4.66)"/><path class="cls-17" d="M449.74,50q3.86-9,11.19-9a9.07,9.07,0,0,1,6.74,2.69,9.24,9.24,0,0,1,2.65,6.8,9.57,9.57,0,0,1-2.6,7,9.07,9.07,0,0,1-6.79,2.67,10.87,10.87,0,0,1-8.18-3.6q-3,2.55-3,9.49V80.74H429.52V41.35h20.22Z" transform="translate(-8.37 -4.66)"/><path class="cls-17" d="M512.75,65.72v6.91q-6.64,8.7-19.11,8.7-10.26,0-16.52-5.71t-6.24-15q0-8.87,5.74-14.46t14.9-5.6a23.61,23.61,0,0,1,8.67,1.57,19.2,19.2,0,0,1,11.19,11.68,30.8,30.8,0,0,1,1.37,9.82H492.11a9.32,9.32,0,0,0,3.73,4.71,10.75,10.75,0,0,0,6,1.7A14.46,14.46,0,0,0,512.75,65.72Zm-21.85-9h9.52A7.76,7.76,0,0,0,499,52.1a4.22,4.22,0,0,0-3.45-1.66A4.17,4.17,0,0,0,492.27,52,6.91,6.91,0,0,0,490.9,56.69Z" transform="translate(-8.37 -4.66)"/><path class="cls-17" d="M565.16,30.82V80.74h-24q-11,0-17.11-5.69a18.81,18.81,0,0,1-6.08-14.33,19.26,19.26,0,0,1,5.54-14A18.59,18.59,0,0,1,537.29,41a18.13,18.13,0,0,1,7.62,1.41V30.82ZM544.91,66.41V57.54a6.12,6.12,0,0,0-3.4-1,3.72,3.72,0,0,0-3,1.43,5.44,5.44,0,0,0-1.18,3.58,4.48,4.48,0,0,0,1.43,3.68,7.13,7.13,0,0,0,4.53,1.16Z" transform="translate(-8.37 -4.66)"/><path class="cls-17" d="M284.76,121.82V106h31.78v15.85h-8v19.92H292.73V121.82Z" transform="translate(-8.37 -4.66)"/><path class="cls-17" d="M332.71,142.16a15.61,15.61,0,0,1-11-4,13.73,13.73,0,0,1-4.35-10.54A13.93,13.93,0,0,1,321.6,117a17.25,17.25,0,0,1,22.28,0,15.09,15.09,0,0,1,0,21.1A15.64,15.64,0,0,1,332.71,142.16Zm0-18.09a3,3,0,0,0-2.28.9,3.18,3.18,0,0,0-.88,2.33,3.14,3.14,0,0,0,.88,2.32,3.06,3.06,0,0,0,2.28.89,3.15,3.15,0,0,0,2.32-.89,3.22,3.22,0,0,0-2.32-5.55Z" transform="translate(-8.37 -4.66)"/><path class="cls-17" d="M367.09,106v16.9c3.57-1.33,5.39-4.44,5.49-9.35h14.34a19.79,19.79,0,0,1-1.73,7,13.35,13.35,0,0,1-4.22,4.76,14.19,14.19,0,0,1,2.86,2.94,14.69,14.69,0,0,1,1.91,3.7,18.24,18.24,0,0,1,1,4.17,55.82,55.82,0,0,1,.22,5.64H372.58q0-6.53-1.33-9.63a7.44,7.44,0,0,0-4.16-4.25v13.88H352.61V106Z" transform="translate(-8.37 -4.66)"/><path class="cls-17" d="M418.49,131v5q-4.75,6.23-13.69,6.23-7.35,0-11.83-4.09a15.14,15.14,0,0,1-.36-21.13,14.65,14.65,0,0,1,10.67-4,16.77,16.77,0,0,1,6.21,1.13,13.66,13.66,0,0,1,8,8.37,22.07,22.07,0,0,1,1,7H403.7a6.69,6.69,0,0,0,2.68,3.37,7.68,7.68,0,0,0,4.28,1.22A10.36,10.36,0,0,0,418.49,131Zm-15.65-6.47h6.82a5.55,5.55,0,0,0-1.05-3.29,3.06,3.06,0,0,0-4.79,0A5,5,0,0,0,402.84,124.51Z" transform="translate(-8.37 -4.66)"/><path class="cls-17" d="M437.41,113.52v3.54a11.71,11.71,0,0,1,8.74-3.77c3.3,0,5.82.91,7.58,2.75s2.64,4.56,2.64,8.17v17.53H442.68V125.29q0-3.53-2.67-3.52a4.51,4.51,0,0,0-2.6.91v19.06H422.92V113.52Z" transform="translate(-8.37 -4.66)"/></svg>