<svg xmlns="http://www.w3.org/2000/svg" xmlns:xlink="http://www.w3.org/1999/xlink" width="250" height="250" viewBox="0 0 250 250">
  <defs>
    <linearGradient id="linear-gradient" x1="0.5" x2="0.5" y2="1" gradientUnits="objectBoundingBox">
      <stop offset="0" stop-color="#ff5e62"/>
      <stop offset="1" stop-color="#f96"/>
    </linearGradient>
    <linearGradient id="linear-gradient-3" x1="0.5" x2="0.5" y2="1" gradientUnits="objectBoundingBox">
      <stop offset="0" stop-color="#f96"/>
      <stop offset="1" stop-color="#ff5e62"/>
    </linearGradient>
    <clipPath id="clip-custom_6">
      <rect width="250" height="250"/>
    </clipPath>
  </defs>
  <g id="custom_6" data-name="custom – 6" clip-path="url(#clip-custom_6)">
    <rect width="250" height="250" fill="#fff"/>
    <g id="Group_1" data-name="Group 1" transform="translate(0 -0.201)">
      <path id="Path_1" data-name="Path 1" d="M132.864,101.363c65.722,0,105.136-59.945,105.136,5.777a119,119,0,0,1-238,0C0,41.417,67.142,101.363,132.864,101.363Z" transform="translate(6 11.909)" opacity="0.1" fill="url(#linear-gradient)"/>
      <path id="Path_5" data-name="Path 5" d="M33.511,0c35.739,0,95.939,35.6,95.939,71.341a64.71,64.71,0,0,1-129.421,0C.028,35.6-2.228,0,33.511,0Z" transform="matrix(0.839, 0.545, -0.545, 0.839, 85.114, 14.201)" opacity="0.1" fill="url(#linear-gradient)"/>
    </g>
    <g id="gym" transform="translate(49.682 32)">
      <g id="Group_12" data-name="Group 12" transform="translate(19.991 0)">
        <path id="Path_14" data-name="Path 14" d="M153.6,32.159h-9.9a2.474,2.474,0,0,0-2.474,2.474v2.474a2.474,2.474,0,0,0-2.474-2.474h-7.423a2.474,2.474,0,0,0-2.474,2.311l-.171,2.638h-4.778V34.634a2.474,2.474,0,0,0-2.474-2.474h-9.9a2.474,2.474,0,0,0-2.474,2.474V49.479a2.474,2.474,0,0,0,2.474,2.474h9.9a2.474,2.474,0,0,0,2.474-2.474V44.53h4.454l-1.351,20.242a4.926,4.926,0,0,1-4.934,4.5H106.589V68.211a2.475,2.475,0,0,0-1.415-2.227,39.829,39.829,0,0,0-10.555-3.241,2.459,2.459,0,0,0-1.178.119,24.34,24.34,0,0,0-4.172-.881v-6.75A20.621,20.621,0,0,0,91.4,53.977c8.313-5.817,15.192-11.659,15.192-24.23V27.211A27.3,27.3,0,0,0,63.057,5.3,19.771,19.771,0,0,0,39.785,24.737V61.85a2.474,2.474,0,0,0,2.474,2.474,36.671,36.671,0,0,0,25.4-10.162,20.7,20.7,0,0,0,1.816,1.069v6.75a24.333,24.333,0,0,0-4.174.871,2.457,2.457,0,0,0-1.175-.119,39.829,39.829,0,0,0-10.555,3.241A2.475,2.475,0,0,0,52.156,68.2v.082a58.686,58.686,0,0,0-14.845,38.1c0,6.787.324,14.6,2.333,19.794H34.836v-4.948a2.474,2.474,0,0,0-2.474-2.474h-9.9a2.474,2.474,0,0,0-2.474,2.474v14.845a2.474,2.474,0,0,0,2.474,2.474h9.9a2.474,2.474,0,0,0,2.474-2.474v-4.948H48.981a37.855,37.855,0,0,0-4.248,17.32h4.948a32.829,32.829,0,0,1,2.474-12.406v.035a2.474,2.474,0,0,0,2.474,2.474h9.9A2.474,2.474,0,0,0,67,136.077v-9.9H97.979l1.425,1.781a32.908,32.908,0,0,1,7.185,20.487h4.948a37.875,37.875,0,0,0-8.271-23.577l-1.893-2.365-.95-2.85a30.878,30.878,0,0,1,.621-21.2l.139-.346a7.729,7.729,0,0,0,5.406-6.938v-.1l26.818-5.745a9.951,9.951,0,0,0,7.821-9.679V49.479a2.474,2.474,0,0,0,2.474,2.474h9.9a2.474,2.474,0,0,0,2.474-2.474V34.634A2.474,2.474,0,0,0,153.6,32.159ZM118.96,47h-4.948v-9.9h4.948ZM29.888,133.6H24.939v-9.9h4.948Zm19.173-8.467.173,1.052H45.127c-1.413-1.967-2.868-7.079-2.868-19.8a54.885,54.885,0,0,1,9.9-30.421V90.991C48.892,98.384,47.809,117.619,49.061,125.136ZM77.888,4.99a22.241,22.241,0,0,1,23.555,19.356L87.9,17.574a2.455,2.455,0,0,0-1.536-.223L57.619,22.423A21.961,21.961,0,0,1,77.888,4.99ZM44.733,59.282V24.737A14.86,14.86,0,0,1,58.208,9.961a27.218,27.218,0,0,0-6.052,17.25v2.536c0,10.614,4.911,16.426,11.441,21.484A31.734,31.734,0,0,1,44.733,59.282ZM57.1,29.747V27.54l29.317-5.174,15.207,7.6c-.072,9.214-4.28,13.8-13.066,19.955a16.082,16.082,0,0,1-18.379,0C61.323,43.719,57.1,39.119,57.1,29.747ZM67,67.469A18.852,18.852,0,0,1,71.95,66.8a2.474,2.474,0,0,0,2.474-2.474V57.107a19.242,19.242,0,0,0,9.9,0v7.217A2.474,2.474,0,0,0,86.8,66.8a18.852,18.852,0,0,1,4.948.671v3.959l-12.371,2.66L67,71.428ZM53.539,119.037a103.819,103.819,0,0,1,1.908-22.053,10.117,10.117,0,0,0,2.068,1.1,30.628,30.628,0,0,1,.3,20.672H54.63A2.415,2.415,0,0,0,53.539,119.037ZM62.053,133.6H57.1v-9.9h4.948ZM67,121.231a2.474,2.474,0,0,0-2.474-2.474H63.042a35.571,35.571,0,0,0,0-19.794H95.6a35.843,35.843,0,0,0,.126,22.268ZM101.64,91.17c0,1.344-2.115,2.845-4.948,2.845H62.053c-2.833,0-4.948-1.5-4.948-2.845V69.822a34.318,34.318,0,0,1,4.948-1.616v5.228a2.474,2.474,0,0,0,1.955,2.42l14.845,3.194a2.433,2.433,0,0,0,1.039,0l14.845-3.194a2.474,2.474,0,0,0,1.955-2.42V68.2a34.317,34.317,0,0,1,4.948,1.616V91.17Zm30.727-10.686-25.779,5.522V74.221h15.489a9.865,9.865,0,0,0,9.862-9.061l1.707-25.579h2.633V75.644h0A4.973,4.973,0,0,1,132.368,80.483ZM151.125,47h-4.948v-9.9h4.948Z" transform="translate(-19.991 0)" fill="url(#linear-gradient-3)"/>
      </g>
    </g>
  </g>
</svg>
