<svg xmlns="http://www.w3.org/2000/svg" xmlns:xlink="http://www.w3.org/1999/xlink" width="238" height="223.848" viewBox="0 0 238 223.848">
  <defs>
    <linearGradient id="linear-gradient" x1="0.5" x2="0.5" y2="1" gradientUnits="objectBoundingBox">
      <stop offset="0" stop-color="#ff5e62"/>
      <stop offset="1" stop-color="#f96"/>
    </linearGradient>
  </defs>
  <g id="Group_1" data-name="Group 1" transform="translate(-6 -14.201)">
    <path id="Path_1" data-name="Path 1" d="M132.864,101.363c65.722,0,105.136-59.945,105.136,5.777a119,119,0,0,1-238,0C0,41.417,67.142,101.363,132.864,101.363Z" transform="translate(6 11.909)" opacity="0.1" fill="url(#linear-gradient)"/>
    <path id="Path_5" data-name="Path 5" d="M33.511,0c35.739,0,95.939,35.6,95.939,71.341a64.71,64.71,0,0,1-129.421,0C.028,35.6-2.228,0,33.511,0Z" transform="matrix(0.839, 0.545, -0.545, 0.839, 85.114, 14.201)" opacity="0.1" fill="url(#linear-gradient)"/>
    <g id="yoga_2_" data-name="yoga (2)" transform="translate(47.271 30.151)">
      <path id="Path_2" data-name="Path 2" d="M153.063,152.587H131.1a10.128,10.128,0,0,0-7.39-7.413l-5.282-1.321,6.677-32.381A12.822,12.822,0,0,0,116.742,96.8c-14.938-5.184-9.829-2.889-23.57-6.027,4.782-2.907,11.368-7.066,13.424-9.121,2.408-2.411,9.735-9.748,9.735-16.766a14.627,14.627,0,0,0-1.778-6.5l38.357-38.357A8.82,8.82,0,1,0,140.436,7.558a2.429,2.429,0,0,0,3.436,3.436,3.961,3.961,0,0,1,5.6,5.6l-44.7,44.7a2.432,2.432,0,0,0,1.718,4.147c1.318,0,1.7-.694,4.381-3.374a8.2,8.2,0,0,1,.6,2.817c0,3.323-2.8,7.808-8.326,13.345-1.967,1.967-10.9,7.5-16.874,11.009l-8.219-1.027a2.429,2.429,0,0,0-.6,4.821l8.9,1.112c20.662,5.067,12.532,1.653,28.842,7.259a7.949,7.949,0,0,1,5.156,9.084l-3.09,14.984h-7.951l1.283-11.243a2.43,2.43,0,0,0-2.194-2.695c-28.995-2.63-26.277.563-36.226-2.9a18.93,18.93,0,0,1-2.337-.964c-5.939-3.074-7.217-11.978-5.34-16.983a63.609,63.609,0,0,0,6.815-5.6,2.43,2.43,0,0,0-3.331-3.538,55.162,55.162,0,0,1-5.835,4.829c-.612.142-.782.343-3.2,1.931-6.04,3.969-4.869,3.2-36.195,29.529L3.772,130.493A8.4,8.4,0,0,0,.581,140.581C4.514,150.73,4.508,151.035,5.6,152.587H2.439a2.429,2.429,0,0,0,0,4.859H153.063a2.429,2.429,0,1,0,0-4.859ZM58.849,94.217c-.39,6.144,1.941,13.027,7.019,16.7-9.034,4.2-21.156,9.027-36.026,16.7L27.1,120.525C51.166,100.29,55.189,96.781,58.849,94.217ZM6.469,134.535l16.564-11.051,2.54,6.555L14.3,137.221a2.429,2.429,0,0,0-1.088,2.466l2.241,12.881a6.621,6.621,0,0,1-6.642-4.2l-3.7-9.538a3.574,3.574,0,0,1,1.357-4.29Zm11.8,5.914c11.047-7.035,12.7-8.807,40.246-20.921,4.967-2.184,9.3-4.093,13.065-5.97,9.975,3.168,9.264.494,33.894,2.6-3.536,30.988-2.655,24.958-4.112,30.784a8.4,8.4,0,0,0,.548,5.646H20.385Zm91.295,12.138a3.6,3.6,0,0,1-3.488-4.467c1.557-6.229.88-2.094,2.671-17.786h7.5l-3.056,14.82a2.429,2.429,0,0,0,1.79,2.847l7.543,1.887a5.28,5.28,0,0,1,3.415,2.7Z" transform="translate(0 -4.974)" fill="url(#linear-gradient)"/>
      <path id="Path_3" data-name="Path 3" d="M257.115,29.512a20.808,20.808,0,0,0,5.559,12.71,85.493,85.493,0,0,1-10.006,24.439,2.43,2.43,0,0,0,4.144,2.537A89.554,89.554,0,0,0,266.8,45.7a21.7,21.7,0,0,0,3.842,1.98L272,48.694l-3.568,3.568a2.429,2.429,0,0,0,3.436,3.436l31.146-31.146a24.089,24.089,0,0,0,7.1-17.146,2.429,2.429,0,0,0-4.859,0,19.262,19.262,0,0,1-5.679,13.71l-10.55,10.55c0-5.642.415-8.861-2.049-13.2a16.163,16.163,0,0,0-21.266-6.231,8.679,8.679,0,0,0-15.587,1.442l-1.63,4.629a8.483,8.483,0,0,0,8.621,11.207Zm24.856-9.821a12.368,12.368,0,0,1-9.921,5.107,2.435,2.435,0,1,0-.174,4.865A17.385,17.385,0,0,0,284.071,24.7c.129.946.1.344.1,11.828l-7.7,7.7a17.1,17.1,0,0,1-8.346-3.551l2.045-5.074a2.43,2.43,0,0,0-4.508-1.816l-1.169,2.9a15.89,15.89,0,0,1-2.578-8.7c0-.309-.034-.226.172-.393a8.536,8.536,0,0,0,2.661-3.752c1.628-4.622,1.952-5.314,2.074-6.651a11.379,11.379,0,0,1,15.152,2.5Zm-28.9.23,1.63-4.629a3.734,3.734,0,0,1,3.543-2.441,3.619,3.619,0,0,1,3.545,4.749c-1.583,4.494-1.688,5.661-3.242,6.551a3.7,3.7,0,0,1-5.475-4.229Z" transform="translate(-172.696 -4.976)" fill="url(#linear-gradient)"/>
      <path id="Path_4" data-name="Path 4" d="M243.963,234.686a2.441,2.441,0,0,0,3.424-.382c.124-.154.247-.308.371-.464a2.429,2.429,0,0,0-3.815-3.009c-.114.145-.228.287-.36.45A2.418,2.418,0,0,0,243.963,234.686Z" transform="translate(-169.241 -161.599)" fill="url(#linear-gradient)"/>
    </g>
  </g>
</svg>
