<svg xmlns="http://www.w3.org/2000/svg" xmlns:xlink="http://www.w3.org/1999/xlink" width="250" height="250" viewBox="0 0 250 250">
  <defs>
    <linearGradient id="linear-gradient" x1="0.5" x2="0.5" y2="1" gradientUnits="objectBoundingBox">
      <stop offset="0" stop-color="#ff5e62"/>
      <stop offset="1" stop-color="#f96"/>
    </linearGradient>
    <linearGradient id="linear-gradient-3" x1="0.5" x2="0.5" y2="1" gradientUnits="objectBoundingBox">
      <stop offset="0" stop-color="#f96"/>
      <stop offset="1" stop-color="#ff5e62"/>
    </linearGradient>
    <clipPath id="clip-custom_4">
      <rect width="250" height="250"/>
    </clipPath>
  </defs>
  <g id="custom_4" data-name="custom – 4" clip-path="url(#clip-custom_4)">
    <rect width="250" height="250" fill="#fff"/>
    <g id="Group_10" data-name="Group 10">
      <path id="Path_1" data-name="Path 1" d="M132.864,101.363c65.722,0,105.136-59.945,105.136,5.777a119,119,0,0,1-238,0C0,41.417,67.142,101.363,132.864,101.363Z" transform="translate(6 11.909)" opacity="0.1" fill="url(#linear-gradient)"/>
      <path id="Path_5" data-name="Path 5" d="M33.511,0c35.739,0,95.939,35.6,95.939,71.341a64.71,64.71,0,0,1-129.421,0C.028,35.6-2.228,0,33.511,0Z" transform="matrix(0.839, 0.545, -0.545, 0.839, 108.114, 11.201)" opacity="0.1" fill="url(#linear-gradient)"/>
      <g id="padmasana" transform="translate(56.77 46.781)">
        <path id="Path_9" data-name="Path 9" d="M115.4,433.192a2.651,2.651,0,1,0-1.874-.776A2.672,2.672,0,0,0,115.4,433.192Zm0,0" transform="translate(-82.867 -314.484)" fill="url(#linear-gradient-3)"/>
        <path id="Path_10" data-name="Path 10" d="M133.041,130.4h-13.1a17.123,17.123,0,0,0,3.381-5.251,16.876,16.876,0,0,0-.15-13.3,17.354,17.354,0,0,0-.922-1.8,10.1,10.1,0,0,0,2.134-.736,9.857,9.857,0,0,0,5.673-8.977,2.65,2.65,0,0,0-.918-2.006L108.8,80.777l-7.646-22.735A25.533,25.533,0,0,0,79.87,40.8a16.618,16.618,0,0,0,4.663-11.551V25.779a16.657,16.657,0,0,0-6.016-12.817c0-.013,0-.027,0-.04V10.669a10.668,10.668,0,1,0-21.337,0v2.253c0,.013,0,.027,0,.04a16.654,16.654,0,0,0-6.017,12.817v3.473A16.614,16.614,0,0,0,55.831,40.8,25.527,25.527,0,0,0,34.544,58.042L26.9,80.777,6.561,98.326a2.647,2.647,0,0,0-.919,2.006,9.857,9.857,0,0,0,5.675,8.977,10.114,10.114,0,0,0,2.133.737,17.234,17.234,0,0,0-.922,1.8,16.883,16.883,0,0,0-.15,13.3,17.13,17.13,0,0,0,3.381,5.25H2.651a2.65,2.65,0,1,0,0,5.3h130.39a2.65,2.65,0,0,0,0-5.3ZM88.069,81.231l1.062,2.534a27.32,27.32,0,0,0,7.911,10.583l5.1,4.155-14.072-5.22ZM67.85,5.3a5.372,5.372,0,0,1,5.317,4.668,16.612,16.612,0,0,0-10.634,0A5.371,5.371,0,0,1,67.85,5.3ZM56.468,25.779a11.382,11.382,0,1,1,22.764,0v3.473a11.382,11.382,0,1,1-22.764,0Zm-45.4,75.659L30.91,84.317a2.657,2.657,0,0,0,.782-1.163l7.877-23.423a20.234,20.234,0,0,1,19.2-13.8H76.937a20.236,20.236,0,0,1,19.2,13.8l7.877,23.423a2.655,2.655,0,0,0,.781,1.163l19.843,17.121a4.648,4.648,0,0,1-7.443,2.49l-16.8-13.689a21.993,21.993,0,0,1-6.371-8.523l-5.951-14.2V60.472a2.65,2.65,0,0,0-5.3,0v32H52.921v-32a2.65,2.65,0,1,0-5.3,0v7.073L41.68,81.716a22,22,0,0,1-6.37,8.523l-16.8,13.689a4.646,4.646,0,0,1-7.442-2.49ZM47.62,93.287,33.56,98.5l5.1-4.155a27.32,27.32,0,0,0,7.911-10.583l1.052-2.508ZM17.279,123.133a11.72,11.72,0,0,1,6.764-15.446l26.715-9.911H84.943l26.716,9.911A11.728,11.728,0,0,1,108.03,130.4h-.762a11.8,11.8,0,0,1-3.773-.739l-23.84-8.871h3.539a2.65,2.65,0,0,0,2.158-4.189l-2.617-3.669,19.7,5.672a2.65,2.65,0,1,0,1.467-5.094l-29.879-8.6a17.6,17.6,0,0,0-12.439-.717l-20.538,6.427a2.651,2.651,0,1,0,1.583,5.06l20.538-6.427a12.3,12.3,0,0,1,8.645.476,2.819,2.819,0,0,0,.3.136,12.324,12.324,0,0,1,4.771,3.993l1.166,1.635H70.768a2.659,2.659,0,0,0-.925.167l-37.639,14a11.8,11.8,0,0,1-3.765.739h-.774a11.673,11.673,0,0,1-10.386-7.266Zm50.572-1.08L90.281,130.4H45.419Zm0,0" transform="translate(0 0)" fill="url(#linear-gradient-3)"/>
      </g>
    </g>
  </g>
</svg>
