<svg xmlns="http://www.w3.org/2000/svg" xmlns:xlink="http://www.w3.org/1999/xlink" width="250" height="250" viewBox="0 0 250 250">
  <defs>
    <linearGradient id="linear-gradient" x1="0.5" x2="0.5" y2="1" gradientUnits="objectBoundingBox">
      <stop offset="0" stop-color="#ff5e62"/>
      <stop offset="1" stop-color="#f96"/>
    </linearGradient>
    <linearGradient id="linear-gradient-3" x1="0.5" x2="0.5" y2="1" gradientUnits="objectBoundingBox">
      <stop offset="0" stop-color="#f96"/>
      <stop offset="1" stop-color="#ff5e62"/>
    </linearGradient>
    <clipPath id="clip-custom_2">
      <rect width="250" height="250"/>
    </clipPath>
  </defs>
  <g id="custom_2" data-name="custom – 2" clip-path="url(#clip-custom_2)">
    <rect width="250" height="250" fill="#fff"/>
    <g id="Group_8" data-name="Group 8">
      <path id="Path_1" data-name="Path 1" d="M132.864,101.363c65.722,0,105.136-59.945,105.136,5.777a119,119,0,0,1-238,0C0,41.417,67.142,101.363,132.864,101.363Z" transform="translate(6 11.909)" opacity="0.1" fill="url(#linear-gradient)"/>
      <path id="Path_5" data-name="Path 5" d="M33.511,0c35.739,0,95.939,35.6,95.939,71.341a64.71,64.71,0,0,1-129.421,0C.028,35.6-2.228,0,33.511,0Z" transform="matrix(0.839, 0.545, -0.545, 0.839, 152.114, 5.201)" opacity="0.1" fill="url(#linear-gradient)"/>
      <g id="Page-1" transform="translate(56 33.997)">
        <g id="_002---Warrior-Pose" data-name="002---Warrior-Pose" transform="translate(0 0.003)">
          <path id="Shape" d="M0,146.149a2.477,2.477,0,0,0,2.477,2.477H123.858a2.477,2.477,0,0,0,0-4.954h-16.7c1.91-8.254,7.2-31.049,9.2-39.033,2.725-10.877-.1-14.615-6.25-17.682-3.681-1.838-12.2-3.421-20.925-4.345V54.493h37.158a12.4,12.4,0,0,0,12.386-12.386,2.477,2.477,0,0,0-2.477-2.477H78.2a31.331,31.331,0,0,0,6.024-17.34A11.239,11.239,0,0,0,78.9,12.6a9.909,9.909,0,1,0-19.074,0A11.239,11.239,0,0,0,54.5,22.29a31.331,31.331,0,0,0,6.024,17.34H2.477A2.477,2.477,0,0,0,0,42.108,12.4,12.4,0,0,0,12.386,54.493H49.543V83.887c-.518,1.642-5.153,14-33.538,39.387a17.957,17.957,0,0,0-5.073,20.4H2.477A2.477,2.477,0,0,0,0,146.149Zm97.338-23.129,8.965,2.45c-1.734,7.456-3.391,14.563-4.181,17.992a8.752,8.752,0,0,1-6.763-9.844c.315-2.051.708-4.325,1.2-6.8Q96.951,124.87,97.338,123.019ZM107.888,91.4c3.7,1.848,5.928,2.973,3.659,12.044-.9,3.619-2.477,10.255-4.112,17.206l-9.066-2.477c1.717-7.895,3.1-13.453,3.121-13.525a2.477,2.477,0,0,0-2.4-3.092h-32.2A12.4,12.4,0,0,1,54.5,89.174V53.314a13.25,13.25,0,0,0,4.771-8.73H79.453a13.25,13.25,0,0,0,4.771,8.73V82.158c-3.515-.268-6.921-.416-9.909-.416a2.477,2.477,0,0,0,0,4.954C87.115,86.7,103.751,89.322,107.888,91.4Zm18.447-41.864H87.429a8.085,8.085,0,0,1-2.93-4.954h48.845A7.446,7.446,0,0,1,126.335,49.539ZM64.406,9.9a4.954,4.954,0,1,1,9.909,0,5.091,5.091,0,0,1-.084.644,18.735,18.735,0,0,0-9.74,0A5.091,5.091,0,0,1,64.406,9.9ZM59.452,22.29c0-5.105,5.135-7.431,9.909-7.431s9.909,2.326,9.909,7.431c0,5.945-4.184,17.34-9.909,17.34S59.452,28.235,59.452,22.29ZM12.386,49.539a7.446,7.446,0,0,1-7.008-4.954H54.223a8.073,8.073,0,0,1-2.93,4.954ZM50.1,93.444a17.385,17.385,0,0,0,10.473,11.863,178.73,178.73,0,0,0-26.345,19.656l-5.363-6.894A147.743,147.743,0,0,0,50.1,93.444ZM19.307,126.973c2.113-1.888,4.09-3.716,5.945-5.45l5.234,6.728c-6.473,5.769-11.923,11-14.863,13.872a13.05,13.05,0,0,1,3.684-15.15Zm50.448-20.459H95.938c-.926,3.9-2.589,11.1-4.233,19.322-.513,2.554-.919,4.9-1.239,7.02a13.644,13.644,0,0,0,3.015,10.815H21.16C31.249,133.954,56.544,110.517,69.755,106.514Z" transform="translate(0 -0.003)" fill="url(#linear-gradient-3)"/>
          <path id="Shape-2" data-name="Shape" d="M55.477,58a2.477,2.477,0,0,0,0,4.954h2.477a2.477,2.477,0,0,0,0-4.954Z" transform="translate(78.29 85.669)" fill="url(#linear-gradient-3)"/>
        </g>
      </g>
    </g>
  </g>
</svg>
