<svg xmlns="http://www.w3.org/2000/svg" xmlns:xlink="http://www.w3.org/1999/xlink" width="250" height="250" viewBox="0 0 250 250">
  <defs>
    <linearGradient id="linear-gradient" x1="0.5" x2="0.5" y2="1" gradientUnits="objectBoundingBox">
      <stop offset="0" stop-color="#ff5e62"/>
      <stop offset="1" stop-color="#f96"/>
    </linearGradient>
    <clipPath id="clip-custom_5">
      <rect width="250" height="250"/>
    </clipPath>
  </defs>
  <g id="custom_5" data-name="custom – 5" clip-path="url(#clip-custom_5)">
    <rect width="250" height="250" fill="#fff"/>
    <g id="Group_11" data-name="Group 11">
      <path id="Path_1" data-name="Path 1" d="M132.864,101.363c65.722,0,105.136-59.945,105.136,5.777a119,119,0,0,1-238,0C0,41.417,67.142,101.363,132.864,101.363Z" transform="translate(6 11.909)" opacity="0.1" fill="url(#linear-gradient)"/>
      <path id="Path_5" data-name="Path 5" d="M33.511,0c35.739,0,95.939,35.6,95.939,71.341a64.71,64.71,0,0,1-129.421,0C.028,35.6-2.228,0,33.511,0Z" transform="translate(51.786 45.148) rotate(-8)" opacity="0.1" fill="url(#linear-gradient)"/>
      <g id="yoga" transform="translate(61.986 56)">
        <g id="Group_3" data-name="Group 3" transform="translate(80.532 106.709)">
          <g id="Group_2" data-name="Group 2">
            <path id="Path_11" data-name="Path 11" d="M330.216,432.722a2.47,2.47,0,1,0,0,3.493A2.467,2.467,0,0,0,330.216,432.722Z" transform="translate(-325.999 -431.997)" fill="url(#linear-gradient)"/>
          </g>
        </g>
        <g id="Group_5" data-name="Group 5" transform="translate(0.008 39.52)">
          <g id="Group_4" data-name="Group 4">
            <path id="Path_12" data-name="Path 12" d="M122.617,195.138c-.049-.038-16.314-8.869-19.6-10.554-2.89-4.778-11.972-19.8-11.973-19.8a9.931,9.931,0,0,0-7.6-4.733,2.278,2.278,0,0,0-.635-.032l-39.329-.02a.9.9,0,0,0-.151,0l-.072.007-.051,0a9.943,9.943,0,0,0-7.769,4.77s-9.082,15.025-11.972,19.8c-4.6,2.358-17.678,9.571-19.157,10.281a2.474,2.474,0,0,0-.443.273,9.879,9.879,0,0,0,11.017,16.356c.41-.242,8.581-5.439,13.6-8.222a40.564,40.564,0,0,0,10.192-8.047c1.266-1.381,1.672-1.819,2.334-2.541V213.3L19.44,223.959a12.135,12.135,0,0,0,5.567,22.984h76.471a12.127,12.127,0,0,0,5.573-22.981L85.473,213.3V192.684l2.41,2.623A40.2,40.2,0,0,0,98,203.273c5.041,2.794,13.179,7.972,13.606,8.224a9.879,9.879,0,0,0,11.012-16.359ZM55.832,164.916l14.821.007v7.422a7.41,7.41,0,0,1-14.821,0Zm-9.881,0,4.94,0v7.431a12.351,12.351,0,1,0,24.7,0v-7.419l4.94,0v47.433H45.951ZM35.033,191.886l-.016.019a35.612,35.612,0,0,1-8.928,7.047c-5.051,2.8-13.22,7.984-13.714,8.286a4.938,4.938,0,0,1-5.656-8.055c2.513-1.276,15.749-8.582,19.6-10.507a2.47,2.47,0,0,0,1.009-.931c2.379-3.932,12.338-20.406,12.337-20.406a5.041,5.041,0,0,1,1.346-1.463v19.505ZM55.832,242H45.951a4.94,4.94,0,0,1,0-9.881h9.881Zm49.029-13.612A7.2,7.2,0,0,1,101.477,242H60.772v-9.881H73.122a2.47,2.47,0,1,0,0-4.94H45.951A9.873,9.873,0,0,0,37.4,242H25.006a7.186,7.186,0,0,1-3.379-13.614L44.058,217.3H82.426Zm15.228-21.922a4.92,4.92,0,0,1-5.964.779c-.547-.332-8.618-5.462-13.73-8.3a35.256,35.256,0,0,1-8.874-6.988c-1.876-2.042-4.189-4.558-6.048-6.581v-19.5a4.943,4.943,0,0,1,1.344,1.451s9.96,16.476,12.339,20.409a2.472,2.472,0,0,0,1.01.931c3.826,1.912,17.108,9.242,19.6,10.507A4.939,4.939,0,0,1,120.088,206.469Z" transform="translate(-0.008 -159.993)" fill="url(#linear-gradient)"/>
          </g>
        </g>
        <g id="Group_7" data-name="Group 7" transform="translate(45.951)">
          <g id="Group_6" data-name="Group 6">
            <path id="Path_13" data-name="Path 13" d="M203.292,0a17.291,17.291,0,1,0,17.291,17.291A17.311,17.311,0,0,0,203.292,0Zm0,29.642a12.351,12.351,0,1,1,12.351-12.351A12.365,12.365,0,0,1,203.292,29.642Z" transform="translate(-186.001)" fill="url(#linear-gradient)"/>
          </g>
        </g>
      </g>
    </g>
  </g>
</svg>
