<svg xmlns="http://www.w3.org/2000/svg" width="1934.96" height="510.905" viewBox="0 0 1934.96 510.905">
  <g id="Group_7769" data-name="Group 7769" transform="translate(7.4 -6524.5)">
    <path id="Path_3590" data-name="Path 3590" d="M0,387.041c39.514,34.966,86.239,62.633,159.966,62.633,201.469,0,201.469-92.252,402.938-92.252S764.371,451.7,965.84,451.7s201.469-166.12,402.937-166.12,201.469,160.281,402.942,160.281c75.783,0,122.15-8.254,162.383-18.552" transform="translate(-7 6583.209)" fill="none" stroke="#c5c9e0" stroke-width="1" fill-rule="evenodd" opacity="0.5"/>
    <path id="Path_3591" data-name="Path 3591" d="M0,388.174c39.509,34.647,86.251,62.06,159.966,62.06,201.469,0,201.469-102.489,402.938-102.489S764.371,452.875,965.84,452.875,1167.309,274.14,1368.777,274.14s201.469,166.517,402.938,166.517c75.429,0,122.272-11.525,162.383-25.945" transform="translate(-7 6580.821)" fill="none" stroke="#20e8ff" stroke-width="1" fill-rule="evenodd"/>
    <path id="Path_3592" data-name="Path 3592" d="M0,389.263c39.514,34.345,86.24,61.524,159.966,61.524,201.469,0,201.469-112.678,402.938-112.678S764.371,454.044,965.84,454.044s201.469-191.29,402.937-191.29,201.469,172.722,402.942,172.722c75.8,0,122.146-15,162.383-33.722" transform="translate(-7 6578.443)" fill="none" stroke="#c5c9e0" stroke-width="1" fill-rule="evenodd" opacity="0.5"/>
    <path id="Path_3593" data-name="Path 3593" d="M0,391.187c39.514,34.236,86.24,61.328,159.966,61.328,201.469,0,201.469-123.544,402.938-123.544S764.371,456.41,965.84,456.41s201.469-204.987,402.937-204.987,201.469,179.948,402.938,179.948c75.377,0,122.291-18.257,162.383-41.11" transform="translate(-7 6576.077)" fill="none" stroke="#c5c9e0" stroke-width="1" stroke-dasharray="10" fill-rule="evenodd"/>
    <path id="Path_3594" data-name="Path 3594" d="M0,392.264c39.516,33.945,86.232,60.809,159.966,60.809,201.469,0,201.469-133.751,402.938-133.751S764.371,457.586,965.84,457.586,1167.309,240,1368.777,240s201.469,186.2,402.942,186.2c75.638,0,122.2-21.734,162.383-48.881" transform="translate(-7 6573.692)" fill="none" stroke="#c5c9e0" stroke-width="1" fill-rule="evenodd" opacity="0.5"/>
    <path id="Path_3595" data-name="Path 3595" d="M0,394.266c39.515,33.757,86.235,60.473,159.966,60.473,201.469,0,201.469-144.39,402.938-144.39S764.371,459.883,965.84,459.883,1167.309,229,1368.777,229s201.469,193.058,402.942,193.058c75.106,0,122.384-24.8,162.383-55.908" transform="translate(-7 6571.396)" fill="none" stroke="#c5c9e0" stroke-width="1" fill-rule="evenodd" opacity="0.5"/>
    <path id="Path_3596" data-name="Path 3596" d="M0,395.328c39.511,33.5,86.246,60.016,159.966,60.016,201.469,0,201.469-154.776,402.938-154.776S764.371,461.11,965.84,461.11s201.469-243.777,402.937-243.777,201.469,199.572,402.938,199.572c75.705,0,122.177-28.579,162.383-64.258" transform="translate(-7 6568.959)" fill="none" stroke="#c5c9e0" stroke-width="1" fill-rule="evenodd" opacity="0.5"/>
    <path id="Path_3597" data-name="Path 3597" d="M0,397.367c39.514,33.252,86.237,59.57,159.966,59.57,201.469,0,201.469-165.105,402.938-165.105s201.468,171.49,402.937,171.49S1167.309,206.74,1368.777,206.74s201.469,206.018,402.938,206.018c75.3,0,122.316-31.609,162.383-71.2" transform="translate(-7 6566.747)" fill="none" stroke="#c5c9e0" stroke-width="1" fill-rule="evenodd" opacity="0.5"/>
    <path id="Path_3598" data-name="Path 3598" d="M0,398.4c39.516,33.005,86.229,59.129,159.966,59.129,201.469,0,201.469-175.441,402.938-175.441S764.371,464.538,965.84,464.538,1167.309,195.13,1368.777,195.13s201.469,212.485,402.938,212.485c75.552,0,122.23-35.174,162.383-79.141" transform="translate(-7 6564.323)" fill="none" stroke="#c5c9e0" stroke-width="1" fill-rule="evenodd" opacity="0.5"/>
    <path id="Path_3599" data-name="Path 3599" d="M0,399.423C39.522,432.19,86.214,458.13,159.966,458.13c201.469,0,201.469-185.787,402.938-185.787S764.371,465.755,965.84,465.755,1167.309,183.51,1368.777,183.51s201.469,218.964,402.938,218.964c75.4,0,122.282-38.376,162.383-86.4" transform="translate(-7 6561.896)" fill="none" stroke="#c5c9e0" stroke-width="1" fill-rule="evenodd" opacity="0.5"/>
    <path id="Path_3600" data-name="Path 3600" d="M0,400.487C39.516,433,86.233,458.73,159.966,458.73c201.469,0,201.469-196.138,402.938-196.138S764.371,466.975,965.84,466.975,1167.309,171.88,1368.777,171.88s201.469,225.459,402.938,225.459c75.2,0,122.35-43.523,162.383-98.077" transform="translate(-7 6559.468)" fill="none" stroke="#c5c9e0" stroke-width="1" fill-rule="evenodd" opacity="0.5"/>
    <path id="Path_3601" data-name="Path 3601" d="M0,409.352c39.514,32.36,86.239,57.975,159.966,57.975C361.435,467.327,361.233,239.6,562.7,239.6S764.371,476.22,965.84,476.22,1167.51,130.5,1368.979,130.5,1570.246,400,1771.714,400c75.178,0,122.358-55.284,162.383-124.592" transform="translate(-7 6550.827)" fill="none" stroke="#c5c9e0" stroke-width="1" fill-rule="evenodd" opacity="0.5"/>
    <path id="Path_3602" data-name="Path 3602" d="M0,395.035c39.52,52.68,86.221,94.322,159.966,94.322,201.469,0,201.469-337.042,402.938-337.042S764.371,503.828,965.84,503.828,1167.309,1.177,1368.773,1.177s201.473,378.615,402.945,378.615c75.389,0,122.287-73.525,162.383-165.549" transform="translate(-7 6523.823)" fill="none" stroke="#c5c9e0" stroke-width="1" fill-rule="evenodd" opacity="0.5"/>
  </g>
</svg>
